<?xml version="1.0" encoding="UTF-8"?>
<svg width="160px" height="161px" viewBox="0 0 160 161" version="1.1" xmlns="http://www.w3.org/2000/svg" xmlns:xlink="http://www.w3.org/1999/xlink">
    <!-- Generator: Sketch 61.2 (89653) - https://sketch.com -->
    <title>logo</title>
    <desc>Created with Sketch.</desc>
    <g id="Page-1" stroke="none" stroke-width="1" fill="none" fill-rule="evenodd">
        <g id="c22-logo" fill="#0A0B09">
            <g id="logo">
                <path d="M19.853,25.087 C19.853,23.448 20.021,20.558 17.501,20.558 C15.041,20.558 15.099,23.122 15.099,24.875 L15.099,35.841 C15.099,37.589 15.041,40.319 17.501,40.319 C20.231,40.319 19.853,36.548 19.853,34.807 L19.853,33.002 L31.912,33.002 L31.912,43.648 C28.257,47.302 21.819,48.337 16.846,48.337 C2.274,48.337 2.225,39.876 2.225,35.726 L2.225,24.264 C2.225,16.961 4.89,12.532 16.525,12.532 C21.921,12.532 27.549,13.465 31.912,16.792 L31.912,26.178 L19.853,26.178 L19.853,25.087" id="Fill-1"></path>
                <path d="M53.363,33.002 C51.07,33.932 48.012,34.48 48.012,36.876 C48.012,37.967 48.725,39.226 49.869,39.002 C50.96,39.002 52.162,38.63 53.363,37.749 L53.363,33.002 Z M53.852,45.016 C51.129,47.302 48.455,48.337 44.896,48.337 C38.896,48.337 35.138,44.573 35.138,38.514 C35.138,31.633 39.28,29.622 45.062,27.708 L53.363,25.036 L53.363,23.839 C53.363,22.144 52.926,20.448 51.129,20.448 C49.053,20.448 48.609,22.144 48.609,23.839 L48.609,25.255 L36.551,25.255 L36.551,16.792 C40.977,13.625 46.54,12.532 51.886,12.532 C55.33,12.532 59.749,13.08 62.642,15.257 C66.238,18.103 66.304,21.707 66.238,25.684 L66.238,35.302 C66.238,37.1 66.079,38.681 67.832,39.934 L67.832,47.637 L53.852,47.637 L53.852,45.016 L53.852,45.016 Z" id="Fill-2"></path>
                <path d="M84.202,13.247 L88.462,13.247 L88.462,21.109 L84.202,21.109 L84.202,34.261 C84.202,37.967 84.15,39.337 88.462,39.824 L88.462,47.632 L82.018,48.119 C79.177,48.344 75.684,47.842 73.499,45.716 C71.153,43.378 71.313,40.153 71.313,37.151 L71.313,21.109 L69.733,21.109 L69.733,13.247 L71.313,13.247 L71.313,6.526 L84.202,2.87 L84.202,13.247" id="Fill-3"></path>
                <path d="M108.499,25.087 C108.499,23.448 108.653,20.558 106.147,20.558 C103.694,20.558 103.745,23.122 103.745,24.875 L103.745,35.841 C103.745,37.589 103.694,40.319 106.147,40.319 C108.885,40.319 108.499,36.548 108.499,34.807 L108.499,33.002 L120.559,33.002 L120.559,43.648 C116.903,47.302 110.459,48.337 105.493,48.337 C90.922,48.337 90.858,39.876 90.858,35.726 L90.858,24.264 C90.858,16.961 93.543,12.532 105.165,12.532 C110.567,12.532 116.19,13.465 120.559,16.792 L120.559,26.178 L108.499,26.178 L108.499,25.087" id="Fill-4"></path>
                <g id="Group-9">
                    <path d="M138.465,14.775 C141.406,13.028 144.465,12.424 147.195,12.532 C149.873,12.649 152.219,13.516 153.529,14.833 C155.874,17.069 156.145,19.574 156.145,22.524 L156.145,35.404 C156.145,37.1 155.984,39.002 157.675,39.934 L157.675,47.632 L143.976,47.632 C143.219,44.135 143.27,40.479 143.27,36.934 L143.27,26.891 C143.27,26.673 143.431,25.087 142.885,23.839 C142.011,22.524 140.597,21.541 138.465,22.524 L138.465,35.404 C138.465,37.1 138.297,39.002 140.044,39.934 L140.044,47.632 L123.996,47.632 L123.996,39.934 C125.692,38.952 125.582,37.37 125.582,35.623 L125.582,13.08 C125.634,11.332 125.742,9.475 123.944,8.549 L123.944,0.859 L138.465,0.859 L138.465,14.775" id="Fill-5"></path>
                    <path d="M81.214,137.511 C81.214,118.674 86.412,112.338 104.979,103.198 C119.602,96.028 127.337,94.343 127.337,85.343 C127.337,79.856 124.523,76.766 120.873,76.766 C116.377,76.766 113.974,80.28 113.974,86.608 L113.974,93.637 L83.315,93.637 L83.315,65.37 C94.995,57.781 107.511,54.549 122.273,54.549 C148.152,54.549 159.961,65.235 159.961,87.451 C159.961,97.299 157.854,104.046 151.667,110.09 C147.304,114.311 137.745,118.674 124.246,125.562 C116.646,129.499 112.715,131.749 112.715,137.659 L112.715,138.635 L118.06,138.635 C125.363,138.635 127.054,136.386 127.202,128.376 L157.854,128.376 L157.854,161 L81.214,161 L81.214,137.511" id="Fill-7"></path>
                    <path d="M0,137.511 C0,118.674 5.204,112.338 23.766,103.198 C38.395,96.028 46.13,94.343 46.13,85.343 C46.13,79.856 43.315,76.766 39.653,76.766 C35.156,76.766 32.766,80.28 32.766,86.608 L32.766,93.637 L2.114,93.637 L2.114,65.37 C13.775,57.781 26.303,54.549 41.066,54.549 C66.932,54.549 78.753,65.235 78.753,87.451 C78.753,97.299 76.64,104.046 70.452,110.09 C66.098,114.311 56.538,118.674 43.032,125.562 C35.438,129.499 31.507,131.749 31.507,137.659 L31.507,138.635 L36.846,138.635 C44.164,138.635 45.847,136.386 45.982,128.376 L76.64,128.376 L76.64,161 L0,161 L0,137.511" id="Fill-8"></path>
                </g>
            </g>
        </g>
    </g>
</svg>