<svg width="648" height="177" viewBox="0 0 648 177" fill="none" xmlns="http://www.w3.org/2000/svg">
<path d="M174.536 117.437L199.388 53.4651H210.49L235.982 117.437H224.423L218.53 102.175H191.439L185.774 117.437H174.536ZM194.089 93.3564H215.789L204.733 65.4827L194.089 93.3564ZM243.918 117.437V51.6373H253.968V117.437H243.918ZM285.737 138C282.357 138 279.311 137.695 276.6 137.086C273.889 136.507 271.575 135.655 269.656 134.527C267.768 133.4 266.321 132.045 265.316 130.46C264.311 128.876 263.809 127.11 263.809 125.16C263.809 123.606 264.22 122.144 265.042 120.773C265.895 119.402 267.144 118.229 268.788 117.255C270.463 116.249 272.504 115.503 274.91 115.016C273.113 114.102 271.773 113.066 270.89 111.908C270.037 110.751 269.611 109.426 269.611 107.933C269.611 106.654 269.976 105.45 270.707 104.323C271.468 103.166 272.535 102.145 273.905 101.262C275.306 100.348 276.95 99.6016 278.839 99.0225C280.727 98.4435 282.814 98.1087 285.098 98.0173L287.291 102.404C285.402 102.373 283.788 102.526 282.448 102.861C281.138 103.166 280.118 103.607 279.387 104.186C278.686 104.734 278.337 105.405 278.337 106.197C278.337 107.233 278.93 107.994 280.118 108.481C281.306 108.938 282.981 109.258 285.144 109.441L292.91 110.035C296.717 110.34 299.96 110.964 302.641 111.908C305.351 112.853 307.422 114.178 308.854 115.884C310.316 117.59 311.047 119.753 311.047 122.372C311.047 124.596 310.437 126.653 309.219 128.541C308.032 130.46 306.311 132.12 304.057 133.522C301.833 134.923 299.169 136.02 296.062 136.812C292.956 137.604 289.514 138 285.737 138ZM286.742 131.054C291.28 131.054 294.844 130.369 297.433 128.998C300.052 127.658 301.362 125.906 301.362 123.743C301.362 122.098 300.494 120.819 298.758 119.905C297.022 118.991 294.372 118.412 290.808 118.169L282.494 117.529C280.544 117.681 278.854 118.046 277.423 118.625C276.022 119.205 274.956 119.951 274.225 120.865C273.494 121.778 273.128 122.814 273.128 123.972C273.128 125.373 273.677 126.607 274.773 127.673C275.87 128.739 277.438 129.562 279.479 130.141C281.519 130.75 283.94 131.054 286.742 131.054ZM286.423 103.089C282.646 103.089 279.25 102.373 276.235 100.942C273.25 99.5102 270.89 97.5753 269.154 95.1385C267.418 92.7017 266.55 89.975 266.55 86.9592C266.55 83.9433 267.418 81.2167 269.154 78.7798C270.92 76.343 273.296 74.4082 276.281 72.9766C279.296 71.5451 282.677 70.829 286.423 70.829C290.169 70.829 293.534 71.5451 296.519 72.9766C299.504 74.4082 301.864 76.343 303.6 78.7798C305.366 81.2167 306.25 83.9433 306.25 86.9592C306.25 89.9443 305.382 92.656 303.646 95.0928C301.91 97.5296 299.549 99.4795 296.565 100.942C293.58 102.373 290.199 103.089 286.423 103.089ZM286.423 95.5497C288.494 95.5497 290.336 95.1992 291.951 94.4988C293.565 93.7677 294.829 92.7624 295.742 91.4829C296.656 90.1728 297.113 88.6649 297.113 86.9592C297.113 84.4003 296.108 82.329 294.098 80.7447C292.118 79.1304 289.559 78.3229 286.423 78.3229C284.321 78.3229 282.463 78.6884 280.849 79.4196C279.265 80.1507 278.017 81.171 277.103 82.4811C276.189 83.7606 275.732 85.2535 275.732 86.9592C275.732 89.4874 276.722 91.5593 278.702 93.1736C280.712 94.7579 283.285 95.5497 286.423 95.5497ZM293.458 80.1507L289.712 73.1594L313.971 72.1998L313.879 80.5163L293.458 80.1507ZM343.22 118.808C338.5 118.808 334.281 117.727 330.566 115.564C326.88 113.371 323.987 110.461 321.886 106.836C319.784 103.181 318.733 99.1746 318.733 94.8186C318.733 91.5893 319.327 88.5435 320.515 85.6797C321.734 82.7859 323.439 80.2271 325.632 78.003C327.855 75.779 330.459 74.0276 333.444 72.7482C336.428 71.4687 339.703 70.829 343.266 70.829C347.987 70.829 352.19 71.9257 355.875 74.119C359.591 76.2816 362.499 79.1911 364.601 82.8467C366.702 86.4715 367.753 90.4626 367.753 94.8186C367.753 98.0173 367.144 101.064 365.926 103.958C364.738 106.851 363.048 109.41 360.855 111.634C358.662 113.858 356.073 115.61 353.088 116.889C350.104 118.169 346.815 118.808 343.22 118.808ZM343.22 109.898C346.022 109.898 348.505 109.289 350.667 108.07C352.86 106.821 354.581 105.069 355.829 102.815C357.078 100.561 357.703 97.8952 357.703 94.8186C357.703 91.7421 357.078 89.0761 355.829 86.8221C354.581 84.5374 352.86 82.786 350.667 81.5672C348.505 80.3485 346.022 79.7394 343.22 79.7394C340.419 79.7394 337.921 80.3485 335.728 81.5672C333.566 82.786 331.86 84.5374 330.612 86.8221C329.393 89.0761 328.784 91.7421 328.784 94.8186C328.784 97.8952 329.409 100.561 330.657 102.815C331.906 105.069 333.612 106.821 335.774 108.07C337.967 109.289 340.449 109.898 343.22 109.898ZM433.318 118.808C428.234 118.808 423.529 118.031 419.202 116.478C414.881 114.924 411.09 112.7 407.826 109.806C404.602 106.882 402.09 103.379 400.288 99.2967C398.494 95.2149 397.593 90.6297 397.593 85.5426C397.593 80.4855 398.461 75.9161 400.197 71.8343C401.933 67.7218 404.354 64.2033 407.461 61.2788C410.6 58.3237 414.268 56.0546 418.471 54.4703C422.707 52.886 427.321 52.0942 432.313 52.0942C434.63 52.0942 436.973 52.277 439.349 52.6426C441.724 53.0081 444.054 53.6172 446.339 54.4703C448.655 55.2928 450.848 56.4202 452.917 57.8518L448.44 65.894C446.13 64.4318 443.617 63.3351 440.902 62.604C438.226 61.8729 435.453 61.5073 432.588 61.5073C428.874 61.5073 425.506 62.0707 422.491 63.198C419.476 64.2947 416.905 65.894 414.771 67.9959C412.643 70.0672 410.998 72.5804 409.837 75.5355C408.714 78.4907 408.146 81.8107 408.146 85.4969C408.146 90.6754 409.243 95.0778 411.436 98.7027C413.628 102.328 416.644 105.085 420.481 106.973C424.351 108.832 428.796 109.761 433.821 109.761C436.288 109.761 438.513 109.532 440.491 109.075C442.475 108.588 444.074 108.039 445.288 107.43V91.9856H430.76V83.4864H454.471V113.371C452.8 114.498 450.698 115.473 448.166 116.295C445.673 117.118 443.082 117.742 440.4 118.169C437.75 118.595 435.394 118.808 433.318 118.808ZM481.424 118.808C478.285 118.808 475.531 118.229 473.156 117.072C470.78 115.884 468.92 114.224 467.582 112.091C466.27 109.929 465.618 107.385 465.618 104.46C465.618 101.993 466.244 99.7687 467.491 97.7888C468.737 95.7782 470.675 94.1182 473.293 92.8081C475.942 91.498 479.336 90.6297 483.48 90.2035C487.625 89.7465 492.604 89.8072 498.419 90.3863L498.602 97.3318C494.458 96.7528 490.894 96.5093 487.912 96.6007C484.929 96.6921 482.475 97.0727 480.556 97.7431C478.67 98.3828 477.267 99.251 476.353 100.348C475.472 101.414 475.029 102.647 475.029 104.049C475.029 106.242 475.805 107.933 477.359 109.121C478.944 110.309 481.105 110.903 483.846 110.903C486.189 110.903 488.29 110.477 490.15 109.624C492.01 108.77 493.472 107.567 494.536 106.014C495.632 104.46 496.181 102.632 496.181 100.53V88.5128C496.181 86.5022 495.756 84.7658 494.901 83.3036C494.046 81.8107 492.754 80.6533 491.018 79.8308C489.282 79.0083 487.122 78.5971 484.531 78.5971C482.155 78.5971 479.812 78.9626 477.496 79.6937C475.179 80.3942 472.973 81.5065 470.871 83.0294L468.039 75.6269C470.871 73.7078 473.828 72.3519 476.902 71.5601C479.976 70.7683 482.932 70.3721 485.765 70.3721C489.968 70.3721 493.564 71.0425 496.546 72.3826C499.561 73.6927 501.878 75.6876 503.49 78.3686C505.102 81.0189 505.911 84.3696 505.911 88.4214V117.437H496.866V112.091C495.345 114.254 493.224 115.915 490.516 117.072C487.807 118.229 484.772 118.808 481.424 118.808ZM519.277 117.437V72.1998H529.328V78.4143C530.542 76.6472 531.945 75.2157 533.531 74.119C535.11 72.9916 536.788 72.1692 538.556 71.6515C540.319 71.1032 542.12 70.829 543.947 70.829C547.628 70.829 550.689 71.6365 553.13 73.2508C555.597 74.8651 557.333 76.937 558.338 79.4653C560.59 76.1752 563.207 73.9212 566.196 72.7025C569.178 71.4537 572.18 70.829 575.196 70.829C579.366 70.829 582.701 71.6515 585.2 73.2965C587.694 74.9415 589.495 77.0585 590.591 79.648C591.714 82.2376 592.282 84.9029 592.282 87.6446V117.437H582.231V90.569C582.231 87.4311 581.363 84.9029 579.627 82.9837C577.917 81.0339 575.424 80.0593 572.135 80.0593C569.968 80.0593 568.036 80.5313 566.333 81.4758C564.623 82.4204 563.272 83.7299 562.267 85.4055C561.288 87.0506 560.805 88.9547 560.805 91.1174V117.437H550.754V90.569C550.754 87.4311 549.899 84.9029 548.196 82.9837C546.486 81.0339 543.973 80.0593 540.658 80.0593C538.524 80.0593 536.592 80.5313 534.856 81.4758C533.146 82.4204 531.795 83.7299 530.79 85.4055C529.811 87.0506 529.328 88.9547 529.328 91.1174V117.437H519.277ZM626.473 118.808C621.605 118.808 617.323 117.818 613.636 115.838C609.955 113.828 607.077 111.025 605.001 107.43C602.965 103.835 601.941 99.6623 601.941 94.91C601.941 91.4372 602.535 88.2386 603.722 85.3142C604.91 82.359 606.587 79.8001 608.748 77.6375C610.914 75.4748 613.44 73.7991 616.331 72.6111C619.255 71.423 622.44 70.829 625.879 70.829C629.626 70.829 632.961 71.4994 635.884 72.8395C638.808 74.1497 641.229 75.9925 643.148 78.3686C645.1 80.7447 646.47 83.5321 647.26 86.7307C648.082 89.8986 648.219 93.3414 647.671 97.0577H611.58C611.521 99.7687 612.115 102.145 613.362 104.186C614.615 106.197 616.397 107.765 618.707 108.893C621.056 110.02 623.811 110.583 626.976 110.583C629.534 110.583 632.001 110.203 634.377 109.441C636.785 108.649 638.965 107.491 640.91 105.968L644.793 113.188C643.331 114.376 641.569 115.396 639.493 116.249C637.425 117.072 635.264 117.697 633.006 118.123C630.755 118.58 628.575 118.808 626.473 118.808ZM612.174 89.6551H637.803C637.712 86.2431 636.615 83.5628 634.514 81.6129C632.445 79.6631 629.488 78.6885 625.651 78.6885C621.937 78.6885 618.844 79.6631 616.377 81.6129C613.943 83.5628 612.539 86.2431 612.174 89.6551Z" fill="url(#paint0_linear_3_11)"/>
<g filter="url(#filter0_d_3_11)">
<path d="M134.086 92.2166C134.105 91.7603 133.944 91.2968 133.595 90.9724C123.896 82.0698 110.34 71.4517 92.7668 62.4773C77.3163 54.5923 63.0927 50.1841 51.6741 47.6402C50.812 47.4464 50.066 48.1866 50.0288 49.0783C50.021 49.2709 50.0477 49.47 50.1097 49.6704C54.1952 62.2618 58.2807 74.8526 62.3669 87.4389C62.5679 88.0512 62.6515 88.6942 62.6247 89.3326C62.5986 89.9508 62.4674 90.5644 62.2318 91.1434L47.7322 126.831C47.6539 127.021 47.616 127.212 47.6082 127.399C47.571 128.286 48.2419 129.075 49.1066 128.975C60.392 127.61 74.6509 124.685 90.4252 118.373C108.865 111 123.27 101.447 133.498 93.4047C133.873 93.1161 134.067 92.6722 134.086 92.2166Z" fill="url(#paint1_linear_3_11)"/>
<path d="M90.6503 118.936C109.155 111.537 123.61 101.951 133.871 93.8831C134.406 93.4686 134.667 92.8478 134.692 92.2414C134.718 91.631 134.502 90.988 134.008 90.5278C124.279 81.5978 110.677 70.9418 93.0429 61.9374C77.5388 54.025 63.2656 49.6012 51.8059 47.0482M90.6503 118.936L90.4252 118.373M90.6503 118.936C74.8186 125.272 60.5076 128.208 49.1791 129.577C47.849 129.732 46.9536 128.531 47.0019 127.374C47.0123 127.121 47.0639 126.86 47.1709 126.6M51.8059 47.0482C50.4746 46.7492 49.4714 47.8942 49.4231 49.0528C49.4114 49.3198 49.4492 49.5881 49.5302 49.8499L49.5328 49.8577L49.6137 50.1064C53.6725 62.615 57.7319 75.1248 61.7906 87.6282C61.9675 88.1687 62.0426 88.7386 62.0184 89.3071C61.9956 89.8568 61.8787 90.4012 61.6699 90.9149L47.1709 126.6M51.8059 47.0482L51.6741 47.6402M90.4252 118.373C108.865 111 123.27 101.447 133.498 93.4046C133.873 93.1161 134.067 92.6722 134.086 92.2166C134.105 91.7603 133.944 91.2968 133.595 90.9724M90.4252 118.373L133.595 90.9724M47.1709 126.6C47.1715 126.6 47.1709 126.601 47.1709 126.6ZM133.595 90.9724C123.896 82.0698 110.34 71.4517 92.7668 62.4773M133.595 90.9724L92.7668 62.4773M51.6741 47.6402C63.0927 50.1841 77.3163 54.5923 92.7668 62.4773M51.6741 47.6402C50.812 47.4464 50.066 48.1866 50.0288 49.0783C50.021 49.2709 50.0477 49.47 50.1097 49.6704L50.16 49.8257C54.2292 62.3656 58.2977 74.9049 62.3669 87.4389C62.5679 88.0512 62.6515 88.6942 62.6247 89.3326C62.5986 89.9508 62.4674 90.5644 62.2318 91.1434L47.7322 126.831C47.6539 127.021 47.616 127.212 47.6082 127.399C47.571 128.286 48.2419 129.075 49.1066 128.975L92.7668 62.4773" stroke="url(#paint2_linear_3_11)" stroke-width="0.18588"/>
</g>
<defs>
<filter id="filter0_d_3_11" x="0.901803" y="0.901742" width="180.82" height="175.717" filterUnits="userSpaceOnUse" color-interpolation-filters="sRGB">
<feFlood flood-opacity="0" result="BackgroundImageFix"/>
<feColorMatrix in="SourceAlpha" type="matrix" values="0 0 0 0 0 0 0 0 0 0 0 0 0 0 0 0 0 0 127 0" result="hardAlpha"/>
<feOffset dx="0.4647" dy="0.4647"/>
<feGaussianBlur stdDeviation="23.235"/>
<feComposite in2="hardAlpha" operator="out"/>
<feColorMatrix type="matrix" values="0 0 0 0 1 0 0 0 0 1 0 0 0 0 1 0 0 0 1 0"/>
<feBlend mode="normal" in2="BackgroundImageFix" result="effect1_dropShadow_3_11"/>
<feBlend mode="normal" in="SourceGraphic" in2="effect1_dropShadow_3_11" result="shape"/>
</filter>
<linearGradient id="paint0_linear_3_11" x1="653.825" y1="84.7985" x2="269.385" y2="-60.2953" gradientUnits="userSpaceOnUse">
<stop stop-color="#FF7529"/>
<stop offset="1" stop-color="#FF2D55"/>
</linearGradient>
<linearGradient id="paint1_linear_3_11" x1="139.139" y1="94.3309" x2="38.9065" y2="90.7161" gradientUnits="userSpaceOnUse">
<stop stop-color="#FF355B"/>
<stop offset="0.5" stop-color="#FF8442"/>
</linearGradient>
<linearGradient id="paint2_linear_3_11" x1="44.1276" y1="83.1266" x2="32.2042" y2="139.25" gradientUnits="userSpaceOnUse">
<stop stop-color="#FFEEB6" stop-opacity="0"/>
<stop offset="1" stop-color="white"/>
</linearGradient>
</defs>
</svg>
