<svg width="140" height="106" viewBox="0 0 140 106" fill="none" xmlns="http://www.w3.org/2000/svg">
<path d="M66.5612 57L70.3692 47.2H72.0702L75.9762 57H74.2052L73.3022 54.662L69.1512 54.662L68.2832 57H66.5612ZM69.5572 53.311L72.8822 53.311L71.1882 49.041L69.5572 53.311ZM77.1922 57L77.1922 46.92H78.7322L78.7322 57H77.1922ZM83.6 60.15C83.082 60.15 82.6153 60.1033 82.2 60.01C81.7846 59.9213 81.43 59.7907 81.136 59.618C80.8466 59.4453 80.625 59.2377 80.471 58.995C80.317 58.7523 80.24 58.4817 80.24 58.183C80.24 57.945 80.303 57.721 80.429 57.511C80.5596 57.301 80.751 57.1213 81.003 56.972C81.2596 56.818 81.5723 56.7037 81.941 56.629C81.6656 56.489 81.4603 56.3303 81.325 56.153C81.1943 55.9757 81.129 55.7727 81.129 55.544C81.129 55.348 81.185 55.1637 81.297 54.991C81.4136 54.8137 81.577 54.6573 81.787 54.522C82.0016 54.382 82.2536 54.2677 82.543 54.179C82.8323 54.0903 83.152 54.039 83.502 54.025L83.838 54.697C83.5486 54.6923 83.3013 54.7157 83.096 54.767C82.8953 54.8137 82.739 54.8813 82.627 54.97C82.5196 55.054 82.466 55.1567 82.466 55.278C82.466 55.4367 82.557 55.5533 82.739 55.628C82.921 55.698 83.1776 55.747 83.509 55.775L84.699 55.866C85.2823 55.9127 85.7793 56.0083 86.19 56.153C86.6053 56.2977 86.9226 56.5007 87.142 56.762C87.366 57.0233 87.478 57.3547 87.478 57.756C87.478 58.0967 87.3846 58.4117 87.198 58.701C87.016 58.995 86.7523 59.2493 86.407 59.464C86.0663 59.6787 85.658 59.8467 85.182 59.968C84.706 60.0893 84.1786 60.15 83.6 60.15ZM83.754 59.086C84.4493 59.086 84.9953 58.981 85.392 58.771C85.7933 58.5657 85.994 58.2973 85.994 57.966C85.994 57.714 85.861 57.518 85.595 57.378C85.329 57.238 84.923 57.1493 84.377 57.112L83.103 57.014C82.8043 57.0373 82.5453 57.0933 82.326 57.182C82.1113 57.2707 81.948 57.385 81.836 57.525C81.724 57.665 81.668 57.8237 81.668 58.001C81.668 58.2157 81.752 58.4047 81.92 58.568C82.088 58.7313 82.3283 58.8573 82.641 58.946C82.9536 59.0393 83.3246 59.086 83.754 59.086ZM83.705 54.802C83.1263 54.802 82.606 54.6923 82.144 54.473C81.6866 54.2537 81.325 53.9573 81.059 53.584C80.793 53.2107 80.66 52.793 80.66 52.331C80.66 51.869 80.793 51.4513 81.059 51.078C81.3296 50.7047 81.6936 50.4083 82.151 50.189C82.613 49.9697 83.131 49.86 83.705 49.86C84.279 49.86 84.7946 49.9697 85.252 50.189C85.7093 50.4083 86.071 50.7047 86.337 51.078C86.6076 51.4513 86.743 51.869 86.743 52.331C86.743 52.7883 86.61 53.2037 86.344 53.577C86.078 53.9503 85.7163 54.249 85.259 54.473C84.8016 54.6923 84.2836 54.802 83.705 54.802ZM83.705 53.647C84.0223 53.647 84.3046 53.5933 84.552 53.486C84.7993 53.374 84.993 53.22 85.133 53.024C85.273 52.8233 85.343 52.5923 85.343 52.331C85.343 51.939 85.189 51.6217 84.881 51.379C84.5776 51.1317 84.1856 51.008 83.705 51.008C83.383 51.008 83.0983 51.064 82.851 51.176C82.6083 51.288 82.417 51.4443 82.277 51.645C82.137 51.841 82.067 52.0697 82.067 52.331C82.067 52.7183 82.2186 53.0357 82.522 53.283C82.83 53.5257 83.2243 53.647 83.705 53.647ZM84.783 51.288L84.209 50.217L87.926 50.07L87.912 51.344L84.783 51.288ZM92.4078 57.21C91.6845 57.21 91.0381 57.0443 90.4688 56.713C89.9041 56.377 89.4608 55.9313 89.1388 55.376C88.8168 54.816 88.6558 54.2023 88.6558 53.535C88.6558 53.0403 88.7468 52.5737 88.9288 52.135C89.1155 51.6917 89.3768 51.2997 89.7128 50.959C90.0535 50.6183 90.4525 50.35 90.9098 50.154C91.3671 49.958 91.8688 49.86 92.4148 49.86C93.1381 49.86 93.7821 50.028 94.3468 50.364C94.9161 50.6953 95.3618 51.141 95.6838 51.701C96.0058 52.2563 96.1668 52.8677 96.1668 53.535C96.1668 54.025 96.0735 54.4917 95.8868 54.935C95.7048 55.3783 95.4458 55.7703 95.1098 56.111C94.7738 56.4517 94.3771 56.72 93.9198 56.916C93.4625 57.112 92.9585 57.21 92.4078 57.21ZM92.4078 55.845C92.8371 55.845 93.2175 55.7517 93.5488 55.565C93.8848 55.3737 94.1485 55.1053 94.3398 54.76C94.5311 54.4147 94.6268 54.0063 94.6268 53.535C94.6268 53.0637 94.5311 52.6553 94.3398 52.31C94.1485 51.96 93.8848 51.6917 93.5488 51.505C93.2175 51.3183 92.8371 51.225 92.4078 51.225C91.9785 51.225 91.5958 51.3183 91.2598 51.505C90.9285 51.6917 90.6671 51.96 90.4758 52.31C90.2891 52.6553 90.1958 53.0637 90.1958 53.535C90.1958 54.0063 90.2915 54.4147 90.4828 54.76C90.6741 55.1053 90.9355 55.3737 91.2668 55.565C91.6028 55.7517 91.9831 55.845 92.4078 55.845ZM106.213 57.21C105.434 57.21 104.713 57.091 104.05 56.853C103.388 56.615 102.807 56.2743 102.307 55.831C101.813 55.383 101.428 54.8463 101.152 54.221C100.877 53.5957 100.739 52.8933 100.739 52.114C100.739 51.3393 100.872 50.6393 101.138 50.014C101.404 49.384 101.775 48.845 102.251 48.397C102.732 47.9443 103.294 47.5967 103.938 47.354C104.587 47.1113 105.294 46.99 106.059 46.99C106.414 46.99 106.773 47.018 107.137 47.074C107.501 47.13 107.858 47.2233 108.208 47.354C108.563 47.48 108.899 47.6527 109.216 47.872L108.53 49.104C108.176 48.88 107.791 48.712 107.375 48.6C106.965 48.488 106.54 48.432 106.101 48.432C105.532 48.432 105.016 48.5183 104.554 48.691C104.092 48.859 103.698 49.104 103.371 49.426C103.045 49.7433 102.793 50.1283 102.615 50.581C102.443 51.0337 102.356 51.5423 102.356 52.107C102.356 52.9003 102.524 53.5747 102.86 54.13C103.196 54.6853 103.658 55.1077 104.246 55.397C104.839 55.6817 105.52 55.824 106.29 55.824C106.668 55.824 107.009 55.789 107.312 55.719C107.616 55.6443 107.861 55.5603 108.047 55.467L108.047 53.101H105.821V51.799H109.454L109.454 56.377C109.198 56.5497 108.876 56.699 108.488 56.825C108.106 56.951 107.709 57.0467 107.298 57.112C106.892 57.1773 106.531 57.21 106.213 57.21ZM113.584 57.21C113.103 57.21 112.681 57.1213 112.317 56.944C111.953 56.762 111.668 56.5077 111.463 56.181C111.262 55.8497 111.162 55.46 111.162 55.012C111.162 54.634 111.258 54.2933 111.449 53.99C111.64 53.682 111.937 53.4277 112.338 53.227C112.744 53.0263 113.264 52.8933 113.899 52.828C114.534 52.758 115.297 52.7673 116.188 52.856L116.216 53.92C115.581 53.8313 115.035 53.794 114.578 53.808C114.121 53.822 113.745 53.8803 113.451 53.983C113.162 54.081 112.947 54.214 112.807 54.382C112.672 54.5453 112.604 54.7343 112.604 54.949C112.604 55.285 112.723 55.544 112.961 55.726C113.204 55.908 113.535 55.999 113.955 55.999C114.314 55.999 114.636 55.9337 114.921 55.803C115.206 55.6723 115.43 55.488 115.593 55.25C115.761 55.012 115.845 54.732 115.845 54.41V52.569C115.845 52.261 115.78 51.995 115.649 51.771C115.518 51.5423 115.32 51.365 115.054 51.239C114.788 51.113 114.457 51.05 114.06 51.05C113.696 51.05 113.337 51.106 112.982 51.218C112.627 51.3253 112.289 51.4957 111.967 51.729L111.533 50.595C111.967 50.301 112.42 50.0933 112.891 49.972C113.362 49.8507 113.815 49.79 114.249 49.79C114.893 49.79 115.444 49.8927 115.901 50.098C116.363 50.2987 116.718 50.6043 116.965 51.015C117.212 51.421 117.336 51.9343 117.336 52.555L117.336 57H115.95V56.181C115.717 56.5123 115.392 56.7667 114.977 56.944C114.562 57.1213 114.097 57.21 113.584 57.21ZM119.384 57L119.384 50.07H120.924V51.022C121.11 50.7513 121.325 50.532 121.568 50.364C121.81 50.1913 122.067 50.0653 122.338 49.986C122.608 49.902 122.884 49.86 123.164 49.86C123.728 49.86 124.197 49.9837 124.571 50.231C124.949 50.4783 125.215 50.7957 125.369 51.183C125.714 50.679 126.115 50.3337 126.573 50.147C127.03 49.9557 127.49 49.86 127.952 49.86C128.591 49.86 129.102 49.986 129.485 50.238C129.867 50.49 130.143 50.8143 130.311 51.211C130.483 51.6077 130.57 52.016 130.57 52.436V57L129.03 57L129.03 52.884C129.03 52.4033 128.897 52.016 128.631 51.722C128.369 51.4233 127.987 51.274 127.483 51.274C127.151 51.274 126.855 51.3463 126.594 51.491C126.332 51.6357 126.125 51.8363 125.971 52.093C125.821 52.345 125.747 52.6367 125.747 52.968L125.747 57H124.207L124.207 52.884C124.207 52.4033 124.076 52.016 123.815 51.722C123.553 51.4233 123.168 51.274 122.66 51.274C122.333 51.274 122.037 51.3463 121.771 51.491C121.509 51.6357 121.302 51.8363 121.148 52.093C120.998 52.345 120.924 52.6367 120.924 52.968L120.924 57H119.384ZM135.809 57.21C135.063 57.21 134.407 57.0583 133.842 56.755C133.278 56.447 132.837 56.0177 132.519 55.467C132.207 54.9163 132.05 54.277 132.05 53.549C132.05 53.017 132.141 52.527 132.323 52.079C132.505 51.6263 132.762 51.2343 133.093 50.903C133.425 50.5717 133.812 50.315 134.255 50.133C134.703 49.951 135.191 49.86 135.718 49.86C136.292 49.86 136.803 49.9627 137.251 50.168C137.699 50.3687 138.07 50.651 138.364 51.015C138.663 51.379 138.873 51.806 138.994 52.296C139.12 52.7813 139.141 53.3087 139.057 53.878L133.527 53.878C133.518 54.2933 133.609 54.6573 133.8 54.97C133.992 55.278 134.265 55.5183 134.619 55.691C134.979 55.8637 135.401 55.95 135.886 55.95C136.278 55.95 136.656 55.8917 137.02 55.775C137.389 55.6537 137.723 55.4763 138.021 55.243L138.616 56.349C138.392 56.531 138.122 56.6873 137.804 56.818C137.487 56.944 137.156 57.0397 136.81 57.105C136.465 57.175 136.131 57.21 135.809 57.21ZM133.618 52.744L137.545 52.744C137.531 52.2213 137.363 51.8107 137.041 51.512C136.724 51.2133 136.271 51.064 135.683 51.064C135.114 51.064 134.64 51.2133 134.262 51.512C133.889 51.8107 133.674 52.2213 133.618 52.744Z" fill="url(#paint0_linear_275_7970)"/>
<g filter="url(#filter0_d_275_7970)">
<path d="M60.3633 53.1364C60.3662 53.0665 60.3415 52.9955 60.288 52.9458C58.802 51.582 56.7249 49.9554 54.0322 48.5806C51.6648 47.3727 49.4854 46.6974 47.7358 46.3077C47.6037 46.278 47.4894 46.3914 47.4837 46.528C47.4825 46.5575 47.4866 46.588 47.4961 46.6187C48.1221 48.5476 48.7481 50.4764 49.3742 52.4045C49.405 52.4983 49.4178 52.5968 49.4137 52.6946C49.4097 52.7893 49.3896 52.8833 49.3535 52.972L47.1318 58.439C47.1198 58.4681 47.114 58.4974 47.1128 58.5261C47.1071 58.6619 47.2099 58.7828 47.3424 58.7674C49.0716 58.5584 51.2564 58.1103 53.6734 57.1433C56.4988 56.0138 58.7061 54.5504 60.2732 53.3184C60.3306 53.2742 60.3604 53.2062 60.3633 53.1364Z" fill="url(#paint1_linear_275_7970)" shape-rendering="crispEdges"/>
<path d="M53.7079 57.2296C56.5433 56.0961 58.7581 54.6277 60.3303 53.3917C60.4124 53.3282 60.4523 53.2331 60.4562 53.1402C60.4601 53.0467 60.427 52.9482 60.3513 52.8777L60.3509 52.8773C58.8602 51.5093 56.7764 49.8773 54.0745 48.4979L54.0745 48.4979C51.6989 47.2858 49.5119 46.6081 47.756 46.217M53.7079 57.2296L53.6734 57.1433M53.7079 57.2296L53.6734 57.1433M53.7079 57.2296C51.2821 58.2002 49.0893 58.6499 47.3535 58.8597L47.3531 58.8597C47.1493 58.8835 47.0125 58.6994 47.0199 58.5222C47.0215 58.4834 47.0294 58.4434 47.0458 58.4037C47.0459 58.4037 47.0459 58.4036 47.0459 58.4035L49.2674 52.937L49.2674 52.937C49.2994 52.8583 49.3173 52.7749 49.3208 52.6907C49.3245 52.6036 49.313 52.5163 49.2859 52.4335L49.2858 52.4332C48.6639 50.5178 48.042 48.6017 47.4201 46.6855L47.4077 46.6474L47.4073 46.6462L47.4073 46.6462C47.3949 46.6061 47.3891 46.565 47.3909 46.5241C47.3983 46.3466 47.552 46.1712 47.756 46.217M53.6734 57.1433C56.4988 56.0138 58.7061 54.5504 60.2732 53.3184C60.3306 53.2742 60.3604 53.2062 60.3633 53.1364C60.3662 53.0665 60.3415 52.9955 60.288 52.9458M53.6734 57.1433L60.288 52.9458M47.756 46.217C47.7561 46.217 47.7561 46.217 47.7561 46.217L47.7358 46.3077M47.756 46.217C47.756 46.217 47.756 46.217 47.756 46.2169L47.7358 46.3077M47.7358 46.3077C49.4854 46.6974 51.6648 47.3727 54.0322 48.5806M47.7358 46.3077C47.6037 46.278 47.4894 46.3914 47.4837 46.528C47.4825 46.5575 47.4866 46.588 47.4961 46.6187L47.5038 46.6425C48.1273 48.5635 48.7507 50.4844 49.3742 52.4045C49.405 52.4983 49.4178 52.5968 49.4137 52.6946C49.4097 52.7893 49.3896 52.8833 49.3535 52.972L47.1318 58.439C47.1198 58.4681 47.114 58.4974 47.1128 58.5261C47.1071 58.6619 47.2099 58.7828 47.3424 58.7674L54.0322 48.5806M54.0322 48.5806C56.7249 49.9554 58.802 51.582 60.288 52.9458M54.0322 48.5806L60.288 52.9458" stroke="url(#paint2_linear_275_7970)" stroke-width="0.18588" shape-rendering="crispEdges"/>
</g>
<defs>
<filter id="filter0_d_275_7970" x="0.92135" y="0.110864" width="106.563" height="105.779" filterUnits="userSpaceOnUse" color-interpolation-filters="sRGB">
<feFlood flood-opacity="0" result="BackgroundImageFix"/>
<feColorMatrix in="SourceAlpha" type="matrix" values="0 0 0 0 0 0 0 0 0 0 0 0 0 0 0 0 0 0 127 0" result="hardAlpha"/>
<feOffset dx="0.4647" dy="0.4647"/>
<feGaussianBlur stdDeviation="23.235"/>
<feComposite in2="hardAlpha" operator="out"/>
<feColorMatrix type="matrix" values="0 0 0 0 1 0 0 0 0 1 0 0 0 0 1 0 0 0 1 0"/>
<feBlend mode="normal" in2="BackgroundImageFix" result="effect1_dropShadow_275_7970"/>
<feBlend mode="normal" in="SourceGraphic" in2="effect1_dropShadow_275_7970" result="shape"/>
</filter>
<linearGradient id="paint0_linear_275_7970" x1="140" y1="52" x2="81.0976" y2="29.7645" gradientUnits="userSpaceOnUse">
<stop stop-color="#FF7529"/>
<stop offset="1" stop-color="#FF2D55"/>
</linearGradient>
<linearGradient id="paint1_linear_275_7970" x1="61.1375" y1="53.4603" x2="45.7795" y2="52.9063" gradientUnits="userSpaceOnUse">
<stop stop-color="#FF355B"/>
<stop offset="0.5" stop-color="#FF8442"/>
</linearGradient>
<linearGradient id="paint2_linear_275_7970" x1="46.5795" y1="51.7439" x2="44.7533" y2="60.3417" gradientUnits="userSpaceOnUse">
<stop stop-color="#FFEEB6" stop-opacity="0"/>
<stop offset="1" stop-color="white"/>
</linearGradient>
</defs>
</svg>
