<svg width="1449" height="586" viewBox="0 0 1449 586" fill="none" xmlns="http://www.w3.org/2000/svg">
<rect x="3" width="1446" height="586" fill="#E3F6FA"/>
<path d="M1289.87 481.888C1290.3 486.142 1291.03 489.069 1292.71 491.514C1294.38 493.959 1297.37 494.623 1300.34 493.766C1302.01 493.295 1303.55 492.447 1304.84 491.287C1306.14 490.128 1307.14 488.687 1307.79 487.076C1308.91 484.083 1308.9 480.819 1308.05 476.882L1289.87 481.888Z" fill="#263238"/>
<path d="M1301.98 453.536C1302.67 456.376 1303.02 458.349 1303.95 462.2C1305.41 468.235 1306.97 470.786 1307.87 475.801C1308.88 481.577 1308.29 484.32 1306.04 487.718C1303.79 491.116 1296.82 494.995 1292.97 490.182C1289.82 486.236 1289.51 481.731 1289.55 475.965C1289.52 471.095 1289.19 466.232 1288.59 461.401V461.304C1288.43 459.764 1288.19 456.722 1287.96 455.192C1287.46 451.823 1289.77 451.447 1290.67 450.956C1291.91 450.262 1293.27 449.775 1294.67 449.513C1296.11 449.317 1297.57 449.382 1298.98 449.705C1300.57 450.004 1301.32 450.822 1301.98 453.536Z" fill="#003940"/>
<path d="M1206.75 463.956C1206.48 463.956 1206.16 466.844 1207.66 467.989C1209.38 469.337 1214.4 471.484 1220.87 470.473C1227.35 469.462 1230.84 467.412 1233.39 465.227C1235.94 463.042 1239.5 459.961 1242.43 459.24C1245.15 458.575 1248.71 457.083 1249.57 456.246C1250.43 455.408 1250.19 451.77 1250.19 451.77L1206.75 463.956Z" fill="#263238"/>
<path d="M1246.99 440.127C1247.29 440.115 1247.6 440.185 1247.86 440.329C1248.58 440.723 1248.74 441.667 1248.83 442.495C1248.85 443.217 1248.95 443.935 1249.14 444.632C1249.99 446.836 1250.56 450.734 1249.99 453.064C1249.54 454.912 1244.63 456.568 1241.81 457.704C1238.51 459.216 1235.45 461.207 1232.73 463.614C1228.76 466.595 1224.06 468.447 1219.12 468.976C1212.64 469.264 1208.39 467.695 1207.03 465.481C1205.34 462.748 1206.55 461.102 1213.9 457.55C1215.3 456.876 1220.17 453.892 1221.83 452.814C1223.58 451.688 1225.24 450.419 1226.79 449.021C1227.57 448.319 1228.31 447.57 1229 446.778C1230.11 445.644 1231.31 444.595 1232.58 443.64C1233.44 442.874 1234.37 442.188 1235.36 441.59C1236.99 440.709 1238.8 440.206 1240.65 440.117C1242.58 439.992 1244.32 440.367 1246.21 440.175C1246.47 440.127 1246.73 440.127 1246.99 440.127Z" fill="#003940"/>
<path d="M1301.27 452.034C1299.83 439.607 1300.83 425.842 1298.96 406.417C1298.66 401.431 1298.26 396.098 1297.72 391.362C1295.9 375.431 1293.12 370.079 1292.76 366.999C1292.76 366.999 1292.59 335.637 1290.09 300.724C1288.91 284.302 1283.77 279.547 1279.5 270.951L1230.6 272.876C1226.23 294.621 1227.23 343.714 1228.29 365.901C1228.83 377.212 1231.78 417.824 1231.94 436.238C1231.98 441.638 1230.9 443.583 1228.97 445.749C1224.94 450.263 1219.77 453.449 1214.83 457.021C1213.47 459.985 1220.37 461.699 1226.11 458.541C1230.27 456.347 1234.31 453.94 1238.22 451.332C1242.43 448.059 1246.96 445.854 1247.85 441.224C1248.18 439.299 1257.02 396.127 1257.19 386.703C1257.34 378.608 1255.76 364.939 1255.76 364.939L1259.77 330.488C1259.77 330.488 1265.15 356.728 1268.36 370.599C1271.57 384.47 1275.1 400.921 1278.75 414.638C1282.34 430.491 1287.15 445.777 1288.26 453.729C1288.56 455.654 1291.56 474.232 1292.66 478.477C1293.75 482.722 1303.44 482.443 1303.75 475.05C1303.97 470.131 1301.59 454.373 1301.27 452.034Z" fill="#AF6152"/>
<path d="M1280.86 271.237C1286.82 280.795 1291.26 288.611 1293.01 317.662C1294.75 346.714 1294.59 364.368 1294.86 367.91C1295.13 371.452 1296.98 373.965 1299.54 391.157C1302.1 408.348 1300.85 429.285 1300.85 429.285C1300.85 429.285 1299.21 432.49 1292.38 433.357C1286.08 434.165 1282.87 431.999 1282.87 431.999C1282.87 431.999 1274.3 400.147 1271.49 388.317C1269.01 377.93 1260.13 337.675 1260.13 337.675L1257.13 365.59C1257.13 365.59 1259.71 375.755 1257.67 391.002C1255.63 406.25 1252.24 421.209 1252.24 421.209C1252.24 421.209 1249.09 422.287 1242.42 422.479C1238.53 422.413 1234.67 421.7 1231.01 420.371C1231.01 420.371 1227.79 376.458 1227.09 359.295C1226.38 342.132 1225.03 294.445 1230.45 273.672L1280.86 271.237Z" fill="#013A43"/>
<path d="M1288.66 368.038C1288.66 368.038 1285.05 364.678 1278.41 365.728C1271.77 366.777 1269.2 370.675 1269.2 370.675C1276.23 367.277 1288.66 368.038 1288.66 368.038ZM1273.08 371.782C1277.04 372.379 1280.98 372.552 1289.52 370.57C1285.4 369.751 1273.08 371.782 1273.08 371.782Z" fill="#AF6152"/>
<path d="M1227.24 361.844C1227.24 362.45 1227.29 363.076 1227.33 363.721C1232.97 363.132 1238.66 363.097 1244.31 363.615C1241.85 362.373 1232.98 360.997 1227.24 361.844Z" fill="#AF6152"/>
<path d="M1227.42 366.142C1227.42 366.71 1227.48 367.287 1227.52 367.884C1228.87 367.749 1236.8 366.979 1240.29 365.959C1234.48 365.718 1228.71 366.055 1227.42 366.142Z" fill="#AF6152"/>
<path d="M1293.06 373.852C1290.99 365.891 1290.95 350.577 1290.44 337.274C1290.29 333.25 1290.13 329.101 1289.9 324.683C1289.05 307.356 1286.87 288.047 1277.28 275.908L1276.53 276.486C1282.98 284.639 1286.03 296.161 1287.58 308.126C1278.52 307.337 1276.2 298.837 1273.03 287.122C1272.6 285.525 1272.14 283.872 1271.66 282.165L1270.81 282.396C1271.29 284.09 1271.77 285.746 1272.16 287.344C1275.32 299.03 1277.83 308.29 1287.69 309.012C1288.35 314.287 1288.72 319.6 1288.98 324.779C1289.19 329.188 1289.36 333.337 1289.51 337.351C1290.03 350.702 1290.06 366.055 1292.16 374.102C1292.39 375.007 1292.64 375.941 1292.9 376.932C1295.66 387.213 1298.88 404.366 1298.24 431.55C1298.57 431.376 1298.9 431.18 1299.2 430.963C1299.76 404.01 1296.57 386.972 1293.81 376.711C1293.54 375.691 1293.29 374.747 1293.06 373.852Z" fill="#003940"/>
<path d="M1260.06 337.66L1253.08 304.884C1253.08 304.884 1241.15 304.547 1234.26 298.146C1235.75 303.806 1245.4 308.234 1249.73 309.052L1251.05 314.827C1250.96 317.927 1250.87 321.181 1250.77 324.54C1250.21 343.06 1249.81 362.168 1250.77 366.471C1252.7 374.826 1252.16 382.835 1251.07 393.789C1250.11 403.646 1248.4 415.861 1247.35 422.109L1248.24 421.993C1249.31 415.804 1250.7 404.917 1252.09 393.837C1253.48 382.758 1253.84 375.018 1251.65 366.249C1250.6 362.091 1251.13 342.184 1251.65 324.559C1251.71 322.435 1251.78 320.35 1251.84 318.302L1256.5 338.613L1257.05 365.566L1260.06 337.66Z" fill="#003940"/>
<path d="M1160.32 210.641C1161.28 210.342 1162.31 210.342 1163.28 210.641C1164.79 211.172 1166.26 211.815 1167.68 212.566C1169.93 213.529 1173.56 215.136 1176.03 214.799C1176.53 214.732 1177.56 214.443 1176.81 213.837C1175.78 213.155 1174.82 212.386 1173.92 211.536C1173.49 211.109 1173.14 210.596 1172.91 210.03C1172.68 209.463 1172.58 208.855 1172.59 208.244C1172.62 207.883 1172.77 207.542 1173.02 207.281C1173.41 206.935 1173.71 207.108 1174.07 207.281C1174.44 207.501 1174.84 207.694 1175.24 207.859C1176.06 208.225 1176.88 208.6 1177.69 208.985C1182.44 211.218 1187.24 213.894 1190.33 218.284C1190.77 218.919 1193.58 224.002 1195.36 226.851C1196.83 229.46 1205.71 242.666 1205.71 242.666C1205.71 242.666 1217.77 231.895 1223.17 226.976C1228.94 221.701 1232.66 218.014 1241.56 217.6L1233 245.91C1233 245.91 1217.36 257.962 1214.28 260.099C1206.53 265.518 1204.88 267.27 1199.85 263.15C1193.71 258.097 1191.94 251.907 1189.26 245.236C1186.22 237.719 1185.19 234.08 1183.65 231.866C1182.1 229.652 1179.9 229.691 1178.31 229.344C1176.12 228.94 1174 228.233 1172 227.246C1170.21 226.458 1168.54 225.442 1167.02 224.223C1166.22 223.702 1165.54 223.02 1165.02 222.221C1164.85 221.45 1164.64 220.692 1164.37 219.949C1163.93 219.141 1163.11 218.563 1162.77 217.716C1162.56 217.018 1162.45 216.296 1162.43 215.569C1162.32 215.065 1162.1 214.59 1161.79 214.176C1161.48 213.761 1161.09 213.416 1160.64 213.163C1160.19 212.887 1159.81 212.511 1159.52 212.065C1159.2 211.315 1159.69 210.881 1160.32 210.641Z" fill="#C17372"/>
<path d="M1205.81 242.77C1209.34 247.766 1209.66 252.714 1209.35 254.677C1210.12 252.438 1210.37 250.051 1210.08 247.701C1209.79 245.35 1208.96 243.097 1207.67 241.114L1205.81 242.77Z" fill="#E29494"/>
<path d="M1178.78 216.668C1180.19 219.367 1182.32 221.613 1184.95 223.146C1183.35 223.106 1181.82 222.491 1180.64 221.413C1180.01 220.798 1179.52 220.057 1179.2 219.239C1178.88 218.421 1178.74 217.545 1178.78 216.668Z" fill="#E29494"/>
<path d="M1252.22 199.58C1251.49 197.905 1250.88 196.028 1249.64 194.632C1248.4 193.236 1246.75 192.466 1245.27 191.398L1240.6 187.913C1234.92 184.207 1233.3 175.9 1235.41 172.146C1240.31 163.482 1251.78 161.278 1257.79 161.471C1269.29 161.827 1274.62 165.263 1275.29 171.289C1278.82 171.597 1280.7 173.426 1282.36 176.102C1283.71 178.268 1284.01 179.952 1283.66 186.383C1283.58 187.923 1283.76 189.466 1284.2 190.945C1284.9 192.996 1286.54 195.113 1287.08 197.202C1287.84 199.326 1287.84 201.643 1287.08 203.767C1286.66 204.887 1286.01 205.907 1285.17 206.762C1284.33 207.617 1283.32 208.289 1282.2 208.734C1282.58 207.912 1282.78 207.017 1282.78 206.111C1282.78 205.205 1282.58 204.31 1282.2 203.488C1281.79 205.788 1281.12 208.426 1278.99 209.379C1276.86 210.332 1274.23 208.994 1271.88 209.379C1270.34 209.648 1268.99 210.659 1267.48 210.948C1266.75 211.092 1264.82 211.198 1264.38 210.399C1263.93 209.6 1264.81 208.359 1264.38 207.415C1263.84 206.193 1261.05 205.49 1259.82 204.912C1257.54 203.777 1253.35 202.159 1252.22 199.58Z" fill="#003940"/>
<path d="M1253.95 175.7C1253.52 170.165 1247.39 164.524 1240.17 167.942C1238.44 168.763 1236.95 170.018 1235.85 171.586C1234.75 173.153 1234.08 174.978 1233.89 176.884C1233.7 178.599 1233.82 180.335 1234.26 182.005C1234.8 184.036 1236.18 185.374 1234.85 187.521C1234.11 188.695 1233 189.571 1232.19 190.688C1231.12 192.284 1230.69 194.226 1231 196.123C1231.3 198.02 1232.32 199.731 1233.83 200.911C1233.46 199.762 1233.48 198.524 1233.87 197.384C1234.27 196.244 1235.02 195.262 1236.02 194.586C1234.75 196.781 1234.99 200.015 1235.51 201.69C1236.41 204.273 1237.95 206.581 1240.01 208.391C1242.06 210.2 1244.54 211.45 1247.21 212.019C1250.1 212.548 1256.38 211.923 1257.12 208.361C1257.45 206.744 1256.88 204.443 1256.75 202.797C1256.61 200.824 1256.43 198.86 1256.26 196.897C1255.67 190.466 1254.97 184.046 1254.19 177.645C1254.11 176.99 1254.04 176.355 1253.95 175.7Z" fill="#263238"/>
<path d="M1288.64 286.09C1285.14 275.309 1281.58 270.188 1282.17 265.153C1283.07 257.452 1286.22 247.672 1286.44 242.32C1287.22 223.309 1283.55 221.403 1280.16 219.94C1280.16 219.94 1274.07 218.621 1270.74 217.832C1268.73 217.351 1264.73 216.802 1264.73 216.802C1261.65 216.706 1255.42 216.802 1252.88 217.052C1251.71 217.116 1250.54 217.116 1249.38 217.052L1241.59 217.601C1237.25 221.428 1233.34 225.71 1229.92 230.375C1223.99 238.403 1221.72 247.971 1230.3 255.094C1230.3 255.094 1230.71 262.593 1230.63 265.952C1230.28 270.765 1228.7 279.428 1227.92 289.401C1241.11 301.664 1273.8 298.796 1288.64 286.09Z" fill="#D4C4FC"/>
<path d="M1268.82 214.058C1268.89 212.132 1269.59 202.699 1269.59 202.699C1269.64 203.411 1272.99 205.491 1276.23 201.987C1279.46 198.483 1279.26 193.16 1277.06 190.994C1273.67 187.644 1268.57 190.359 1267.85 194.96C1265.16 196.307 1264.31 192.986 1266.15 189.271C1266.01 186.219 1262.87 185.719 1263.26 179.077C1262.99 175.766 1258.01 173.301 1254.04 175.698C1251.55 172.551 1245.21 172.079 1242.34 177.2C1240.49 181.05 1239.94 181.098 1240.27 185.931C1240.39 187.634 1238.94 189.685 1238.75 191.947C1237.89 201.977 1240.51 206.829 1243.66 208.667C1245.76 209.899 1247.59 210.4 1251.36 210.506L1251.04 213.653C1250.9 215.232 1251.04 216.666 1249.46 217.109C1248.76 218.072 1247.01 225.368 1252.4 230.431C1262.72 228.208 1270.9 219.593 1271.65 218.072C1269.13 217.157 1268.76 215.944 1268.82 214.058Z" fill="#C17372"/>
<path d="M1248.15 203.059L1253.18 201.186C1253.07 200.85 1252.9 200.539 1252.67 200.272C1252.43 200.005 1252.15 199.787 1251.83 199.632C1251.52 199.476 1251.17 199.386 1250.82 199.366C1250.47 199.346 1250.11 199.398 1249.78 199.517C1249.1 199.78 1248.55 200.297 1248.25 200.958C1247.94 201.619 1247.91 202.373 1248.15 203.059Z" fill="#B16668"/>
<path d="M1248.44 201.872C1249.12 201.858 1249.78 201.607 1250.3 201.164C1250.81 200.72 1251.16 200.111 1251.28 199.44C1250.79 199.325 1250.27 199.357 1249.8 199.533C1249.32 199.718 1248.9 200.032 1248.59 200.441C1248.28 200.85 1248.09 201.337 1248.04 201.849C1248.17 201.866 1248.31 201.874 1248.44 201.872Z" fill="#E29494"/>
<path d="M1241.72 184.04L1245.92 183.289C1245.89 183.013 1245.79 182.747 1245.65 182.507C1245.51 182.267 1245.32 182.059 1245.1 181.894C1244.88 181.729 1244.62 181.612 1244.35 181.549C1244.08 181.486 1243.8 181.479 1243.52 181.528C1242.96 181.638 1242.46 181.96 1242.12 182.427C1241.79 182.894 1241.65 183.471 1241.72 184.04Z" fill="#263238"/>
<path d="M1260.03 187.006L1256.29 184.859C1256.42 184.608 1256.59 184.386 1256.81 184.206C1257.03 184.026 1257.28 183.892 1257.55 183.812C1257.82 183.732 1258.1 183.707 1258.38 183.74C1258.66 183.773 1258.93 183.862 1259.18 184.002C1259.68 184.299 1260.04 184.775 1260.2 185.334C1260.36 185.892 1260.3 186.49 1260.03 187.006Z" fill="#263238"/>
<path d="M1245.66 187.753C1245.65 188.226 1245.45 188.677 1245.12 189.011C1244.78 189.345 1244.33 189.536 1243.86 189.543C1243.63 189.548 1243.4 189.507 1243.18 189.422C1242.97 189.337 1242.77 189.21 1242.61 189.049C1242.44 188.887 1242.31 188.694 1242.23 188.482C1242.14 188.269 1242.09 188.041 1242.09 187.81C1242.1 187.337 1242.3 186.886 1242.63 186.552C1242.97 186.218 1243.42 186.027 1243.89 186.02C1244.12 186.013 1244.35 186.054 1244.57 186.138C1244.78 186.222 1244.98 186.349 1245.14 186.511C1245.31 186.673 1245.44 186.866 1245.53 187.08C1245.61 187.293 1245.66 187.522 1245.66 187.753Z" fill="#263238"/>
<path d="M1258.14 189.773C1258.13 190.246 1257.94 190.697 1257.6 191.031C1257.27 191.365 1256.82 191.556 1256.34 191.563C1256.11 191.571 1255.88 191.532 1255.67 191.449C1255.45 191.365 1255.26 191.24 1255.09 191.079C1254.92 190.918 1254.79 190.725 1254.7 190.512C1254.62 190.299 1254.57 190.071 1254.57 189.84C1254.58 189.367 1254.77 188.915 1255.11 188.582C1255.45 188.248 1255.9 188.057 1256.37 188.05C1256.6 188.042 1256.83 188.081 1257.05 188.164C1257.26 188.247 1257.46 188.373 1257.62 188.534C1257.79 188.695 1257.92 188.887 1258.01 189.1C1258.1 189.313 1258.14 189.542 1258.14 189.773Z" fill="#263238"/>
<path d="M1243.64 195.095L1248.92 197.405L1251 187.481C1248.77 187.356 1246.23 190.889 1243.64 195.095Z" fill="#E29494"/>
<path d="M1251.32 210.495C1256.35 210.495 1259.9 209.667 1262.17 208.233C1263.88 207.181 1265.3 205.727 1266.32 203.998C1266.32 203.998 1265.24 207.694 1262.71 209.619C1258.02 213.181 1251.08 212.882 1251.08 212.882L1251.32 210.495Z" fill="#E29494"/>
<path d="M1295.19 308.094C1296.39 306.784 1297.94 305.62 1298.44 303.839C1298.59 303.383 1298.63 302.898 1298.55 302.425C1298.48 301.951 1298.29 301.502 1298.01 301.115C1297.86 300.977 1297.75 300.809 1297.68 300.624C1297.65 300.462 1297.65 300.295 1297.68 300.133C1297.85 299.459 1297.8 298.748 1297.55 298.102C1297.42 297.84 1297.24 297.607 1297.02 297.419C1296.79 297.23 1296.54 297.089 1296.26 297.005C1296.58 296.01 1296.58 294.938 1296.26 293.943C1295.86 292.779 1294.66 291.855 1293.87 293.154C1293.5 293.8 1293.19 294.484 1292.96 295.195C1292.36 296.951 1291.97 298.774 1291.8 300.624C1291.61 302.549 1291.14 307.988 1294.13 308.248C1294.36 308.238 1295.01 308.238 1295.19 308.094Z" fill="#E29494"/>
<path d="M1280 219.932C1292.41 221.857 1294.44 227.171 1301.28 236.575C1306.6 243.71 1311.49 251.158 1315.92 258.879C1318.91 264.375 1319.34 266.358 1313.84 273.404C1311.13 276.889 1308.36 279.815 1303.25 285.417C1300.01 288.969 1296.51 292.608 1293.09 296.208C1292.64 296.71 1292.32 297.31 1292.15 297.959C1291.99 298.609 1291.98 299.289 1292.12 299.943C1292.37 300.697 1292.57 301.465 1292.73 302.244C1292.73 303.265 1292.65 304.286 1292.49 305.295C1292.41 305.801 1292.49 306.318 1292.7 306.783C1292.91 307.248 1293.26 307.641 1293.69 307.913C1294.15 308.095 1294.65 308.155 1295.15 308.086C1294.29 308.735 1293.35 309.251 1292.34 309.617C1291.32 309.973 1290.21 309.935 1289.22 309.511C1288.25 309.059 1287.58 308.173 1286.59 307.875C1286.05 307.721 1285.47 307.75 1284.93 307.605C1284.37 307.445 1283.87 307.107 1283.52 306.643C1282.95 305.93 1282.71 304.91 1281.91 304.467C1281.52 304.265 1281.07 304.226 1280.67 304.063C1280.27 303.87 1279.91 303.583 1279.65 303.226C1279.38 302.869 1279.2 302.453 1279.13 302.012C1279 301.13 1279.02 300.231 1279.2 299.356C1279.55 296.989 1280.03 294.644 1280.64 292.329C1280.89 291.547 1281.28 290.815 1281.78 290.163C1282.31 289.393 1282.82 288.594 1283.41 287.853C1287.35 282.828 1297.43 263.903 1297.43 263.903L1283.41 245.816C1283.41 245.816 1272.57 229.933 1280 219.932Z" fill="#C17372"/>
<path d="M1297.45 263.953C1300.93 267.37 1306.35 267.649 1308.34 267.524C1306.39 268.374 1304.24 268.685 1302.13 268.426C1300.02 268.167 1298.01 267.347 1296.32 266.052L1297.45 263.953Z" fill="#E29494"/>
<path d="M1152.76 291.31C1152.41 291.227 1152.05 291.258 1151.73 291.398C1151.4 291.539 1151.13 291.782 1150.96 292.09C1150.72 291.898 1150.57 291.561 1150.27 291.464C1149.98 291.368 1149.57 291.657 1149.31 291.955C1148.43 293.127 1147.94 294.547 1147.91 296.013C1147.89 297.479 1148.33 298.916 1149.17 300.118C1149.27 300.271 1149.4 300.399 1149.55 300.494C1149.75 300.574 1149.96 300.607 1150.17 300.59C1151.26 300.558 1152.35 300.4 1153.41 300.118C1153.95 300.032 1154.47 299.824 1154.92 299.508C1155.37 299.193 1155.74 298.78 1156.01 298.299C1156.22 297.526 1156.2 296.71 1155.94 295.95C1155.77 294.915 1155.33 293.943 1154.66 293.13C1154.21 292.581 1153.45 291.493 1152.76 291.31Z" fill="#AF6152"/>
<path d="M1134.44 210.515C1144.93 212.874 1147.22 212.98 1152.93 222.75C1159.62 234.186 1167.61 248.567 1168.96 251.782C1171.43 257.663 1171.41 259.819 1162.93 269.888C1157.64 276.174 1151.9 283.759 1150.04 286.002C1149.17 287.051 1150.04 289.207 1150.5 290.488C1151.24 292.5 1150.32 294.675 1150.85 298.525C1152.23 297.879 1153.68 297.416 1155.18 297.149C1155.18 297.149 1152.29 294.078 1153.56 292.028C1153.61 291.948 1153.67 291.878 1153.74 291.824C1153.82 291.77 1153.91 291.733 1154 291.714C1154.09 291.696 1154.18 291.698 1154.27 291.718C1154.36 291.739 1154.45 291.779 1154.52 291.835C1155.21 292.365 1156.26 293.568 1157.52 294.781C1159.71 296.918 1159.13 297.37 1158.07 300.999C1157.66 302.443 1156.52 302.857 1152.14 303.714C1147.76 304.57 1146.45 303.983 1141.07 299.44C1135.7 294.896 1136.88 283.355 1139.55 278.965C1142.23 274.576 1151.36 257.654 1151.36 257.654L1135.12 231.606L1134.44 210.515Z" fill="#C8856A"/>
<path d="M1135.97 210.515C1143.15 212.142 1146.32 213.095 1150.11 218.428C1153.89 223.761 1169.15 250.319 1169.36 252.638C1166.98 256.277 1156.89 258.838 1151.25 257.654L1151.02 258.087L1138.4 239.056L1135.97 210.515Z" fill="#013A43"/>
<path d="M1149.91 256.25L1150.6 257.299C1154.29 257.852 1158.07 257.393 1161.52 255.971C1163.08 255.248 1164.43 254.149 1165.47 252.774C1166.5 251.398 1167.17 249.787 1167.43 248.087L1166.81 246.913L1167.17 246.797C1167.45 246.731 1167.74 246.748 1168.01 246.845C1168.74 247.178 1169.3 247.774 1169.6 248.511C1169.87 249.147 1170.06 249.817 1170.14 250.503C1170.22 251.123 1170.38 251.73 1170.6 252.313C1170.74 252.65 1170.97 252.958 1171.13 253.275C1171.63 254.219 1171.91 255.262 1171.95 256.327C1172.01 256.951 1171.94 257.58 1171.74 258.175C1171.51 258.702 1171.19 259.179 1170.78 259.58C1168.43 262.199 1164.72 263.171 1161.21 263.238C1157.37 263.37 1153.59 262.34 1150.35 260.283C1150.01 260.052 1149.65 259.773 1149.61 259.32C1149.57 258.868 1149.85 258.541 1149.83 258.137C1149.78 257.862 1149.69 257.596 1149.56 257.347C1149.53 256.95 1149.65 256.557 1149.91 256.25Z" fill="#263238"/>
<path d="M1069.65 449.349C1070.42 438.174 1070.81 432.985 1071.88 413.002C1071.97 407.891 1072.16 402.413 1072.5 397.543C1073.65 381.179 1075.76 377.27 1077.16 371.659C1078.57 366.047 1078.39 350.847 1080.53 315.636C1081.22 302.174 1083.4 288.831 1087.03 275.852H1137.46C1142.64 297.924 1144.12 345.726 1143.97 368.472C1143.89 380.072 1143.76 440.003 1144.06 444.787C1144.34 448.724 1146.05 452.422 1148.87 455.183C1153.03 459.64 1156.01 461.44 1161.22 465.329C1160.46 467.321 1149.55 467.254 1146.44 465.733C1141.94 463.467 1137.59 460.911 1133.42 458.08C1129.14 454.913 1128.13 452.998 1128.07 448.175C1128.05 447.652 1128.07 447.128 1128.11 446.606C1128.03 443.795 1119.91 401.797 1118.14 392.316C1116.78 384.952 1118.28 370.686 1118.28 370.686L1112.93 335.609C1112.93 335.609 1108.23 363.592 1105 377.771C1102.64 388.196 1096.78 404.656 1092.95 421.328C1088.48 438.27 1088.14 439.762 1085.47 451.9C1084.14 458.013 1080.89 478.583 1079.41 482.819C1074.59 496.478 1063.78 489.692 1063.17 482.145C1062.8 477.111 1069.48 451.746 1069.65 449.349Z" fill="#C8856A"/>
<path d="M1113.01 335.619L1116.92 310.313C1116.92 310.313 1132.03 308.522 1137.51 303.247C1137.51 303.247 1130.59 313.017 1120.34 314.606L1116.04 335.581L1118.31 370.398L1113.01 335.619Z" fill="#AF6152"/>
<path d="M1172.92 470.997C1173.2 470.997 1173.66 474.106 1172.14 475.454C1170.38 476.994 1165.21 479.564 1158.32 478.746C1151.43 477.928 1147.73 475.858 1144.91 473.567C1142.09 471.276 1138.25 468.09 1135.13 467.436C1132.24 466.829 1127.52 465.25 1126.58 464.375C1125.65 463.499 1125.73 459.513 1125.73 459.513L1172.92 470.997Z" fill="#263238"/>
<path d="M1128.16 445.573C1127.89 445.709 1127.65 445.902 1127.46 446.138C1127.27 446.373 1127.13 446.647 1127.06 446.939C1126.87 448.027 1126.87 449.433 1126.43 451.233C1125.76 454.394 1125.56 457.639 1125.85 460.859C1126.26 462.89 1132.59 464.555 1135.58 465.671C1139.14 467.183 1142.45 469.224 1145.4 471.726C1148.65 474.354 1155.47 476.953 1159.96 476.972C1166.8 476.972 1171.21 475.095 1172.56 472.621C1174.22 469.56 1172.87 467.808 1164.96 464.256C1163.47 463.583 1158.23 460.541 1156.42 459.443C1154.51 458.287 1152.71 456.973 1151.03 455.516C1150.17 454.788 1149.35 454.013 1148.58 453.196C1147.78 452.462 1147.1 451.612 1146.56 450.674C1146.47 450.463 1146.41 450.222 1146.33 450.01C1146.1 449.414 1145.92 448.799 1145.79 448.172C1145.66 447.517 1145.57 446.564 1144.94 446.179C1144.05 445.825 1143.08 445.721 1142.13 445.881C1141.11 445.962 1140.1 446.116 1139.1 446.343C1137.94 446.612 1135.04 446.429 1134.36 447.527C1133.91 448.42 1133.7 449.415 1133.75 450.414C1133.75 450.876 1133.75 451.377 1133.75 451.8C1133.75 451.993 1133.83 452.349 1133.57 452.263C1133.3 452.176 1133 451.512 1132.9 451.3C1132.68 450.78 1132.54 450.231 1132.28 449.731C1132.08 449.118 1131.75 448.554 1131.32 448.075C1130 446.997 1128.73 447.219 1128.36 446.853C1128.37 446.843 1128.19 445.958 1128.16 445.573Z" fill="#013A43"/>
<path d="M1166.15 464.862C1156.25 465.651 1153.19 471.792 1152.82 475.585C1155.08 476.415 1157.46 476.889 1159.86 476.99C1166.71 476.99 1171.42 475.113 1172.74 472.639C1174.31 469.752 1173.2 467.451 1166.15 464.862Z" fill="#E3F6FA"/>
<path d="M1151.27 465.114C1151.16 465.111 1151.05 465.074 1150.96 465.008C1150.87 464.926 1150.8 464.808 1150.79 464.68C1150.78 464.553 1150.82 464.425 1150.9 464.325C1152.04 463.119 1153.42 462.171 1154.96 461.545C1156.5 460.919 1158.15 460.629 1159.81 460.696C1159.87 460.702 1159.94 460.72 1159.99 460.75C1160.05 460.78 1160.1 460.821 1160.14 460.87C1160.18 460.919 1160.21 460.976 1160.23 461.037C1160.24 461.098 1160.25 461.162 1160.24 461.225C1160.24 461.289 1160.22 461.351 1160.19 461.408C1160.16 461.465 1160.12 461.515 1160.07 461.556C1160.02 461.596 1159.97 461.626 1159.9 461.644C1159.84 461.661 1159.78 461.666 1159.71 461.658C1158.22 461.613 1156.73 461.881 1155.34 462.444C1153.95 463.008 1152.69 463.855 1151.65 464.931C1151.6 464.986 1151.54 465.031 1151.48 465.062C1151.41 465.094 1151.34 465.111 1151.27 465.114Z" fill="#F0F0F0"/>
<path d="M1147.04 462.675C1146.95 462.679 1146.86 462.655 1146.78 462.608C1146.7 462.561 1146.64 462.491 1146.6 462.408C1146.56 462.325 1146.54 462.233 1146.55 462.142C1146.57 462.05 1146.61 461.965 1146.67 461.895C1147.8 460.685 1149.19 459.735 1150.73 459.108C1152.26 458.482 1153.92 458.195 1155.58 458.266C1155.64 458.271 1155.71 458.289 1155.76 458.318C1155.82 458.348 1155.87 458.388 1155.91 458.438C1155.95 458.488 1155.98 458.545 1156 458.606C1156.02 458.668 1156.02 458.732 1156.01 458.796C1156.01 458.859 1155.99 458.921 1155.96 458.977C1155.93 459.033 1155.89 459.082 1155.84 459.123C1155.79 459.163 1155.73 459.193 1155.67 459.211C1155.61 459.23 1155.55 459.236 1155.48 459.229C1153.99 459.182 1152.49 459.448 1151.11 460.01C1149.72 460.572 1148.46 461.417 1147.42 462.492C1147.37 462.55 1147.32 462.597 1147.25 462.628C1147.19 462.66 1147.11 462.676 1147.04 462.675Z" fill="#F0F0F0"/>
<path d="M1143.06 459.871C1142.95 459.871 1142.84 459.834 1142.75 459.766C1142.65 459.684 1142.59 459.567 1142.57 459.44C1142.56 459.312 1142.6 459.183 1142.68 459.082C1143.82 457.878 1145.2 456.931 1146.74 456.305C1148.28 455.679 1149.93 455.389 1151.59 455.453C1151.72 455.465 1151.84 455.528 1151.92 455.627C1152 455.726 1152.04 455.854 1152.03 455.983C1152.03 456.046 1152.01 456.107 1151.98 456.164C1151.95 456.22 1151.91 456.269 1151.86 456.31C1151.81 456.35 1151.75 456.38 1151.69 456.398C1151.63 456.416 1151.57 456.422 1151.5 456.416C1150 456.37 1148.51 456.638 1147.12 457.201C1145.73 457.765 1144.47 458.612 1143.43 459.689C1143.38 459.745 1143.33 459.79 1143.26 459.822C1143.2 459.853 1143.13 459.87 1143.06 459.871Z" fill="#F0F0F0"/>
<path d="M1139.18 457.074C1139.07 457.078 1138.96 457.04 1138.88 456.968C1138.78 456.89 1138.71 456.776 1138.7 456.649C1138.68 456.523 1138.71 456.395 1138.79 456.294C1140.66 453.878 1144.93 452.252 1148.53 452.608C1148.6 452.614 1148.66 452.633 1148.71 452.663C1148.77 452.693 1148.82 452.734 1148.86 452.783C1148.9 452.832 1148.93 452.888 1148.95 452.949C1148.97 453.01 1148.97 453.074 1148.97 453.137C1148.96 453.2 1148.94 453.262 1148.91 453.318C1148.88 453.374 1148.84 453.423 1148.79 453.463C1148.74 453.504 1148.69 453.534 1148.63 453.552C1148.56 453.57 1148.5 453.577 1148.44 453.57C1145.2 453.253 1141.22 454.745 1139.55 456.891C1139.51 456.949 1139.45 456.995 1139.39 457.027C1139.32 457.058 1139.25 457.075 1139.18 457.074Z" fill="#F0F0F0"/>
<path d="M1080.98 484.374C1080.2 488.985 1079.13 491.979 1077.18 494.51C1075.24 497.042 1072.04 497.562 1068.98 496.436C1065.92 495.309 1062.14 492.71 1061.69 488.61C1061.23 484.509 1061 481.717 1062.2 477.492L1080.98 484.374Z" fill="#263238"/>
<path d="M1069.7 449.346C1068.4 449.298 1068.06 455.487 1066.62 461.638C1065.08 468.232 1063.82 470.773 1062.5 476.164C1060.99 482.334 1061.71 485.251 1063.46 489.274C1065.22 493.298 1072.59 497.88 1077.02 492.884C1080.63 488.812 1081.29 483.922 1081.7 477.637C1082.12 472.376 1082.99 467.162 1084.3 462.052C1085.41 457.066 1086.59 452.542 1085.53 451.897C1085.18 453.576 1084.74 455.234 1084.21 456.864C1084.03 457.201 1083.44 458.009 1083.38 456.681C1083.38 456.286 1083.58 455.41 1083.59 455.016C1083.62 454.679 1083.54 454.342 1083.37 454.051C1083.19 453.761 1082.94 453.529 1082.63 453.389C1081 452.374 1079.16 451.751 1077.25 451.57C1074.72 451.271 1072.54 450.944 1071.05 451.512C1070.15 451.849 1070.09 452.667 1069.9 453.437C1069.69 454.4 1069.61 454.939 1069.4 454.727C1068.96 454.313 1069.77 450.029 1069.7 449.346Z" fill="#013A43"/>
<path d="M1061.76 479.758C1061.15 483.08 1061.63 486.509 1063.13 489.538C1064.9 493.571 1072.88 498.201 1077.31 493.225C1079.51 490.741 1080.37 487.603 1080.99 484.388C1079.16 479.951 1065.77 476.601 1061.76 479.758Z" fill="#E3F6FA"/>
<path d="M1078.86 477.292C1078.81 477.283 1078.76 477.263 1078.71 477.234C1078.71 477.234 1072.93 474.057 1066.96 474.76C1066.83 474.771 1066.7 474.734 1066.6 474.655C1066.5 474.576 1066.44 474.462 1066.42 474.336C1066.4 474.208 1066.44 474.079 1066.52 473.978C1066.6 473.877 1066.72 473.812 1066.85 473.797C1073.18 473.056 1079 476.281 1079.22 476.406C1079.27 476.439 1079.32 476.483 1079.36 476.535C1079.39 476.586 1079.42 476.644 1079.44 476.706C1079.45 476.768 1079.45 476.832 1079.44 476.894C1079.43 476.957 1079.41 477.016 1079.37 477.07C1079.32 477.155 1079.25 477.222 1079.15 477.262C1079.06 477.302 1078.96 477.312 1078.86 477.292Z" fill="#F0F0F0"/>
<path d="M1067.83 470.11C1067.74 470.09 1067.66 470.045 1067.59 469.981C1067.53 469.916 1067.48 469.834 1067.46 469.745C1067.44 469.682 1067.44 469.617 1067.45 469.554C1067.46 469.491 1067.49 469.431 1067.52 469.377C1067.56 469.323 1067.6 469.277 1067.66 469.241C1067.71 469.205 1067.77 469.18 1067.83 469.167C1073.85 467.839 1079.97 471.506 1080.2 471.66C1080.25 471.696 1080.3 471.742 1080.33 471.795C1080.37 471.848 1080.39 471.908 1080.41 471.971C1080.42 472.034 1080.42 472.098 1080.4 472.16C1080.39 472.223 1080.36 472.282 1080.33 472.334C1080.25 472.439 1080.14 472.51 1080.02 472.534C1079.89 472.557 1079.76 472.53 1079.65 472.459C1079.65 472.459 1073.65 468.869 1068.03 470.11H1067.83Z" fill="#F0F0F0"/>
<path d="M1068.51 465.725C1068.42 465.706 1068.34 465.663 1068.28 465.6C1068.21 465.537 1068.17 465.457 1068.15 465.369C1068.13 465.307 1068.13 465.243 1068.14 465.179C1068.15 465.116 1068.17 465.055 1068.2 465.001C1068.23 464.946 1068.28 464.899 1068.33 464.861C1068.38 464.823 1068.44 464.796 1068.5 464.782C1075.14 463.203 1080.9 467.111 1081.11 467.275C1081.21 467.353 1081.28 467.468 1081.3 467.594C1081.31 467.72 1081.28 467.848 1081.2 467.949C1081.12 468.05 1081 468.116 1080.88 468.132C1080.75 468.148 1080.62 468.114 1080.52 468.035C1080.52 468.035 1074.9 464.252 1068.72 465.725C1068.65 465.744 1068.58 465.744 1068.51 465.725Z" fill="#F0F0F0"/>
<path d="M1069.29 461.444C1069.16 461.444 1069.03 461.393 1068.94 461.303C1068.85 461.212 1068.8 461.09 1068.8 460.962C1068.8 460.835 1068.85 460.712 1068.94 460.622C1069.03 460.532 1069.16 460.481 1069.29 460.481C1075.51 458.902 1081.73 462.945 1081.96 463.118C1082.02 463.152 1082.07 463.198 1082.11 463.253C1082.15 463.308 1082.18 463.371 1082.19 463.437C1082.21 463.503 1082.21 463.571 1082.19 463.638C1082.18 463.704 1082.15 463.766 1082.11 463.82C1082.07 463.875 1082.02 463.92 1081.96 463.953C1081.9 463.987 1081.83 464.007 1081.77 464.014C1081.7 464.02 1081.63 464.012 1081.57 463.991C1081.5 463.969 1081.44 463.934 1081.39 463.889C1081.34 463.889 1075.31 459.952 1069.53 461.415C1069.45 461.441 1069.37 461.451 1069.29 461.444Z" fill="#EBEBEB"/>
<path d="M1085.69 275.866C1082.11 289.631 1080.65 293.02 1078.6 323.678C1076.6 353.413 1077.77 362.471 1077.47 366.032C1076.79 374.243 1073.16 377.083 1072.1 396.47C1071.13 414.239 1070.54 436.148 1070.54 436.148C1070.54 436.148 1072.92 439.43 1079.69 439.998C1085.94 440.566 1089.06 438.217 1089.06 438.217C1089.06 438.217 1100.61 396.826 1103.87 386.382C1108.25 372.222 1113.08 342.68 1113.08 342.68L1117.17 371.115C1117.17 371.115 1115.85 384.726 1118.49 397.586C1121.77 413.536 1125.11 430.853 1125.11 430.853C1128.11 431.95 1131.33 432.352 1134.51 432.028C1141.82 431.287 1144.26 429.592 1144.26 429.592C1144.26 429.592 1146.31 381.463 1146.31 363.838C1146.31 346.213 1145.92 303.194 1143.55 275.799L1085.69 275.866Z" fill="#013A43"/>
<path d="M1113.01 342.756L1118.09 311.953C1118.09 311.953 1128.27 309.257 1134.81 302.423C1134.33 307.525 1125.27 314.061 1121.02 315.081L1115.36 342.351L1117.1 371.162L1113.01 342.756Z" fill="#013A43"/>
<path d="M1101.19 280.64C1099.63 283.189 1098.34 285.896 1097.34 288.716C1096.34 291.522 1095.48 294.382 1094.79 297.283C1094.13 300.171 1093.57 303.058 1093.19 306.052C1092.76 308.997 1092.56 311.971 1092.6 314.947C1093.31 312.059 1093.97 309.171 1094.63 306.283C1095.29 303.395 1095.93 300.508 1096.62 297.678C1097.32 294.848 1098 291.969 1098.73 289.13C1099.46 286.29 1100.31 283.489 1101.19 280.64Z" fill="#013A43"/>
<path d="M1097.35 281.697C1095.87 283.071 1094.52 284.583 1093.32 286.211C1092.12 287.83 1091.03 289.528 1090.05 291.294C1089.09 293.069 1088.26 294.916 1087.58 296.819C1086.87 298.723 1086.41 300.709 1086.21 302.729L1088.92 297.396C1089.88 295.654 1090.74 293.912 1091.7 292.189C1092.65 290.466 1093.62 288.743 1094.59 287C1095.55 285.258 1096.47 283.525 1097.35 281.697Z" fill="#013A43"/>
<path d="M1103.76 317.304C1102.47 326.526 1101.32 335.767 1100.15 344.988C1098.99 354.21 1098.07 369.053 1096.37 378.208C1094.68 387.362 1083.86 423.016 1082.5 432.219C1084.63 423.151 1096.43 387.708 1098.22 378.544C1100.01 369.381 1100.71 354.422 1101.61 345.152C1102.5 335.882 1103.2 326.603 1103.76 317.304Z" fill="#013A43"/>
<path d="M1136.92 317.304L1138.44 341.571C1138.66 345.614 1138.92 349.657 1139.1 353.69C1139.28 357.724 1139.53 361.786 1139.46 365.78C1139.39 369.775 1139.13 408.529 1139.67 416.644C1140.63 407.605 1141.07 373.972 1141.34 365.809C1141.34 357.608 1140.61 349.551 1139.89 341.456C1139.17 333.36 1138.17 325.323 1136.92 317.304Z" fill="#013A43"/>
<path d="M1124.3 427.032L1125.66 435.465C1125.66 435.465 1129.04 437.621 1136.14 436.889C1143.23 436.158 1144.24 433.867 1144.24 433.867V425.935C1144.24 425.935 1142.55 427.581 1136.07 428.313C1132.1 428.735 1128.08 428.299 1124.3 427.032Z" fill="#013A43"/>
<path d="M1070.66 430.29L1070.03 438.809C1070.03 438.809 1072.82 441.696 1079.88 442.659C1086.95 443.621 1088.47 441.61 1088.47 441.61L1090.33 433.909C1090.33 433.909 1088.28 435.122 1081.82 434.323C1077.85 433.793 1074.05 432.418 1070.66 430.29Z" fill="#013A43"/>
<path d="M1139.35 227.199C1138.18 218.728 1132.77 211.345 1123.12 208.159L1106.84 205.993C1102.66 207.08 1076.38 214.656 1076.38 214.656L1084.64 258.993C1084.64 258.993 1082.77 277.533 1082.38 288.978C1094.52 296.679 1128.58 296.236 1141.39 288.506C1141.89 276.782 1140.5 235.602 1139.35 227.199Z" fill="#E3F6FA"/>
<path d="M1135.42 294.694V299.507C1139.57 298.381 1143.46 296.455 1146.88 293.838L1146.99 288.486L1135.42 294.694Z" fill="#263238"/>
<path d="M1144.37 237.542C1143.9 226.8 1139.78 213.911 1136.12 210.513C1136.12 210.513 1125.37 206.922 1120.23 206.162V207.259C1121.34 207.355 1123.25 208.799 1124.13 210.234C1125.78 212.9 1127.41 217.309 1129.43 224.981C1132.17 235.415 1135.2 256.698 1135.38 269.26C1135.55 281.822 1135.38 294.692 1135.38 294.692C1135.38 294.692 1145 291.631 1146.93 288.454C1148.69 283.737 1146.79 282.678 1146.82 279.685C1146.97 265.487 1144.69 245.407 1144.37 237.542Z" fill="#D4C4FC"/>
<path d="M1079.85 290.177C1079.85 290.177 1078.81 294.2 1079.03 295.365C1079.26 296.53 1080.89 298.128 1086.67 300.082C1091.83 301.843 1101.68 305.039 1110.36 304.741L1110.67 299.302L1079.85 290.177Z" fill="#263238"/>
<path d="M1105.47 223.435C1104.11 217.707 1099.5 211.556 1098.13 205.993C1098.13 205.993 1092.2 208.38 1084.78 210.921C1084.78 210.921 1081.75 212.278 1079.13 213.424C1073.82 215.724 1072.93 221.211 1075.03 228.912C1075.03 228.912 1078.51 245.507 1080.35 255.711C1081.9 263.599 1081.78 271.725 1079.99 279.564C1079.24 282.827 1077.1 287.929 1079.9 290.152C1087.6 296.804 1110.7 299.258 1110.7 299.258C1110.7 299.258 1111.34 284.819 1110.7 255.894C1110.28 239.693 1107.2 230.731 1105.47 223.435Z" fill="#D4C4FC"/>
<path d="M1101.61 151.461C1115.73 149.796 1125.84 157.487 1129 165.573C1132.16 173.658 1128.25 186.942 1119.26 195.606L1086.17 172.272C1083 162.194 1087.65 153.107 1101.61 151.461Z" fill="#263238"/>
<path d="M1124.89 191.692C1124.04 192.088 1123.09 192.209 1122.16 192.036C1121.24 191.863 1120.39 191.407 1119.74 190.729L1120.09 207.421C1122.41 211.271 1124.73 216.95 1117.2 217.884C1109.68 218.818 1104.16 215.092 1099.67 207.623L1099.2 201.549C1097.39 201.686 1095.57 201.634 1093.77 201.395C1090.04 200.74 1087.44 198.074 1086.4 193.992C1084.73 187.437 1085.2 173.441 1087.43 164.768C1091.69 161.601 1107.9 161.688 1116.6 167.444C1115.5 172.748 1115.4 174.288 1115.9 177.551C1116.4 180.814 1117.56 182.364 1118.52 182.499C1120.31 182.807 1120.63 180.872 1121.8 179.688C1122.98 178.504 1127.37 177.898 1129.16 181.893C1130.95 185.887 1127.48 190.787 1124.89 191.692Z" fill="#C8856A"/>
<path d="M1099.28 201.54C1105.27 201.068 1113.23 198.45 1115.19 195.764C1116.32 194.259 1117.23 192.603 1117.9 190.845C1117.78 192.974 1117.21 195.052 1116.21 196.939C1114.71 199.297 1108.75 203.292 1099.39 203.735L1099.28 201.54Z" fill="#AF6152"/>
<path d="M1102.62 178.11C1102.62 178.463 1102.73 178.807 1102.93 179.098C1103.13 179.389 1103.41 179.615 1103.74 179.748C1104.07 179.881 1104.43 179.915 1104.77 179.845C1105.12 179.776 1105.44 179.606 1105.69 179.357C1105.94 179.108 1106.11 178.791 1106.18 178.445C1106.25 178.099 1106.22 177.74 1106.09 177.412C1105.96 177.084 1105.73 176.802 1105.44 176.601C1105.15 176.4 1104.81 176.289 1104.46 176.281C1104.21 176.28 1103.98 176.326 1103.75 176.417C1103.53 176.509 1103.33 176.643 1103.16 176.813C1102.99 176.983 1102.85 177.185 1102.76 177.408C1102.66 177.63 1102.62 177.869 1102.62 178.11Z" fill="#263238"/>
<path d="M1104.27 171.724L1108.12 174.487C1108.48 173.962 1108.62 173.318 1108.52 172.69C1108.41 172.062 1108.07 171.499 1107.56 171.118C1107.31 170.931 1107.02 170.798 1106.71 170.728C1106.41 170.657 1106.09 170.65 1105.78 170.707C1105.47 170.763 1105.18 170.883 1104.92 171.058C1104.66 171.233 1104.43 171.46 1104.27 171.724Z" fill="#263238"/>
<path d="M1088.53 172.154L1092.66 170.845C1092.59 170.572 1092.46 170.317 1092.29 170.095C1092.11 169.873 1091.9 169.688 1091.65 169.553C1091.4 169.417 1091.13 169.332 1090.85 169.305C1090.57 169.277 1090.28 169.307 1090.01 169.392C1089.46 169.573 1089 169.962 1088.72 170.476C1088.44 170.991 1088.38 171.591 1088.53 172.154Z" fill="#263238"/>
<path d="M1088.45 177.391C1088.45 177.744 1088.56 178.088 1088.76 178.379C1088.96 178.671 1089.24 178.897 1089.57 179.03C1089.9 179.163 1090.26 179.196 1090.6 179.127C1090.95 179.057 1091.27 178.887 1091.52 178.638C1091.77 178.389 1091.94 178.072 1092.01 177.726C1092.08 177.38 1092.05 177.021 1091.92 176.693C1091.79 176.365 1091.56 176.083 1091.27 175.882C1090.98 175.681 1090.64 175.57 1090.29 175.562C1090.05 175.561 1089.81 175.607 1089.58 175.699C1089.36 175.79 1089.16 175.925 1088.99 176.095C1088.82 176.265 1088.68 176.467 1088.59 176.689C1088.5 176.912 1088.45 177.15 1088.45 177.391Z" fill="#263238"/>
<path d="M1096.83 187.345L1090.27 185.026L1097.09 173.417L1096.83 187.345Z" fill="#AF6152"/>
<path d="M1097.3 193.483L1102.68 190.358C1102.48 189.999 1102.22 189.682 1101.9 189.426C1101.58 189.171 1101.21 188.981 1100.82 188.87C1100.43 188.758 1100.02 188.726 1099.61 188.775C1099.21 188.825 1098.81 188.955 1098.46 189.158C1097.75 189.596 1097.24 190.288 1097.02 191.091C1096.81 191.894 1096.91 192.75 1097.3 193.483Z" fill="#AF6152"/>
<path d="M1120.2 207.417C1125.01 213.664 1131.52 230.924 1133.12 244.207C1133.7 238.432 1134.38 223.877 1133.12 220.2C1132.08 217.509 1130.71 214.957 1129.03 212.605C1129.03 212.605 1129.93 209.718 1129.66 209.361C1128.37 207.648 1120.15 202.671 1120.15 202.671L1120.2 207.417Z" fill="#263238"/>
<path d="M1099.33 202.671L1099.74 206.714C1102.13 211.267 1104.67 215.378 1106.61 223.714C1108.3 231.22 1109.45 238.838 1110.06 246.508C1110.06 246.508 1100.68 230.779 1098.51 226.592C1097.14 223.925 1097.95 216.003 1097.95 216.003C1097.95 216.003 1093.07 214.685 1092.42 214.001C1091.55 213.039 1093.19 207.85 1093.19 207.85L1099.33 202.671Z" fill="#263238"/>
<path d="M1084.48 211.053C1072.28 214.239 1070.61 217.329 1065.56 227.811C1062.97 233.192 1056.49 245.793 1054.6 250.028C1048.69 263.216 1048.3 270.58 1052.2 273.65C1056.66 277.173 1081.68 245.956 1081.68 245.956C1081.68 245.956 1094.19 220.226 1084.48 211.053Z" fill="#013A43"/>
<path d="M1060.77 267.994C1061.82 266.906 1063.02 265.616 1064.28 264.23C1070.47 256.828 1081.61 245.941 1081.61 245.941C1082.75 243.547 1083.77 241.095 1084.66 238.596C1080.56 240.791 1064.19 248.886 1059.44 252.64C1054.27 256.712 1053.66 260.399 1052.29 264.625L1060.77 267.994Z" fill="#263238"/>
<path d="M1069.43 248.389C1063.9 247.715 1052.68 253.019 1050.26 256.638C1047.85 260.258 1049.06 263.28 1048.34 265.571C1047.62 267.862 1047.31 272.088 1049.64 274.379C1051.97 276.67 1058.86 279.192 1065.48 273.811L1069.43 248.389Z" fill="#263238"/>
<path d="M1080.93 242.88C1085.89 240.368 1087.67 239.646 1091.22 236.055C1094.07 233.332 1097.2 230.921 1100.57 228.865C1103.12 227.103 1104.77 224.109 1106.17 222.839C1107.13 221.963 1108.35 223.551 1108.01 225.861C1107.76 227.459 1106.54 229.307 1104.85 231.117C1103.15 232.927 1104.05 232.734 1106.15 232.446C1109.97 232.152 1113.8 232.152 1117.62 232.446C1119.73 232.763 1121.77 233.524 1121.47 234.862C1121.47 234.862 1124.85 234.554 1125.02 236.325C1125.2 238.096 1122.64 239.386 1122.64 239.386C1122.64 239.386 1122.77 240.868 1120.15 241.754C1118.68 242.254 1114.23 242.909 1112.64 243.323C1110.83 243.785 1108.89 244.488 1108.89 244.488C1108.89 244.488 1114.79 244.237 1116.67 244.488C1118.8 244.767 1118.51 246.259 1116.04 247.26C1113.58 248.261 1106.42 248.222 1104.32 249.108C1102.22 249.994 1100.32 250.34 1096.2 250.812C1094 250.999 1091.96 252.034 1090.51 253.7C1088.01 256.299 1076.89 265.443 1074.05 268.437C1071.08 271.468 1067.3 273.588 1063.17 274.549C1057.68 276.032 1053.04 274.549 1052.03 273.587C1051.02 272.624 1050.45 269.13 1052.74 263.826C1055.77 256.838 1057.29 255.509 1062.26 252.362C1067.76 248.829 1078.3 244.237 1080.93 242.88Z" fill="#C8856A"/>
<path d="M1104.86 231.105C1103.83 232.212 1103.76 232.569 1104.32 232.617C1103.51 232.665 1101.89 232.954 1101.71 232.309C1101.54 231.664 1103.12 230.74 1104.71 229.642C1106.09 228.648 1107.22 227.351 1108.02 225.85C1107.77 227.448 1106.56 229.296 1104.86 231.105Z" fill="#AF6152"/>
<path d="M1121.48 234.836C1118.21 234.565 1114.92 234.539 1111.65 234.759C1110.29 234.849 1108.95 235.032 1107.62 235.308C1106.29 235.558 1104.97 235.879 1103.68 236.27C1105.02 236.27 1106.36 236.155 1107.69 236.03C1109.02 235.905 1110.35 235.731 1111.64 235.683C1112.93 235.635 1116.15 235.433 1117.48 235.298C1118.81 235.164 1120.14 234.99 1121.48 234.836Z" fill="#AF6152"/>
<path d="M1122.55 239.353C1122.57 239.167 1122.54 238.979 1122.45 238.814C1122.35 238.649 1122.2 238.518 1122.03 238.438C1121.69 238.272 1121.32 238.164 1120.95 238.121C1120.21 238.042 1119.47 238.026 1118.73 238.072C1117.26 238.14 1113.96 238.342 1112.5 238.496C1111.77 238.592 1111.03 238.679 1110.29 238.823C1109.55 238.968 1108.83 239.179 1108.13 239.372C1106.71 239.738 1105.29 240.152 1103.87 240.614C1105.35 240.498 1106.76 240.325 1108.25 240.075C1108.99 239.959 1109.71 239.767 1110.4 239.69C1111.09 239.613 1111.83 239.497 1112.56 239.42C1114 239.256 1117.3 239.016 1118.75 238.814C1119.46 238.699 1120.18 238.622 1120.89 238.583C1121.58 238.554 1122.43 238.573 1122.55 239.353Z" fill="#AF6152"/>
<path d="M1104.59 244.69C1104.59 244.69 1106.99 244.17 1108.35 243.824C1109.7 243.477 1114.18 243.025 1114.18 243.025C1113.81 243.082 1112.95 243.208 1112.64 243.294C1110.83 243.756 1108.89 244.459 1108.89 244.459C1107.46 244.458 1106.02 244.536 1104.59 244.69Z" fill="#AF6152"/>
<path d="M1053.89 208.117C1052.95 207.826 1051.95 207.826 1051.01 208.117C1049.52 208.694 1048.07 209.379 1046.68 210.167C1044.47 211.187 1040.91 212.872 1038.45 212.593C1037.94 212.593 1036.92 212.275 1037.64 211.697C1038.63 210.995 1039.56 210.206 1040.41 209.339C1040.83 208.906 1041.16 208.388 1041.38 207.82C1041.59 207.251 1041.68 206.644 1041.65 206.037C1041.62 205.674 1041.46 205.332 1041.21 205.075C1040.81 204.747 1040.51 204.921 1040.17 205.142C1039.8 205.369 1039.42 205.569 1039.02 205.739C1038.21 206.134 1037.41 206.519 1036.61 206.923C1031.95 209.252 1027.26 212.034 1024.3 216.462C1023.87 217.107 1021.2 222.238 1019.49 225.126C1018.09 227.753 1009.6 241.076 1009.6 241.076C1009.6 241.076 997.331 230.641 991.863 225.886C985.992 220.784 980.312 216.558 972.958 217.357L982.584 244.917C982.584 244.917 998.438 256.468 1001.55 258.499C1009.38 263.687 1011.06 265.381 1015.93 261.175C1021.89 256.006 1023.49 249.826 1026.01 243.136C1028.83 235.608 1029.76 231.96 1031.24 229.727C1032.73 227.494 1034.91 227.474 1036.48 227.099C1038.64 226.643 1040.73 225.888 1042.69 224.856C1044.44 224.038 1046.08 222.989 1047.56 221.737C1048.34 221.202 1049 220.506 1049.48 219.697C1049.64 218.933 1049.84 218.177 1050.07 217.434C1050.49 216.616 1051.29 216.029 1051.62 215.172C1051.81 214.475 1051.9 213.757 1051.9 213.035C1052 212.533 1052.2 212.057 1052.5 211.639C1052.79 211.221 1053.17 210.87 1053.61 210.61C1054.06 210.327 1054.43 209.941 1054.69 209.483C1055.09 208.723 1054.54 208.299 1053.89 208.117Z" fill="#B16668"/>
<path d="M972.456 216.625C977.616 216.953 981.399 216.856 986.982 221.332C992.565 225.808 1001.31 233.384 1001.31 233.384C1001.31 233.384 1000.42 239.756 997.233 243.838C995.098 246.48 992.618 248.824 989.86 250.807L972.456 241.181V216.625Z" fill="#D4C4FC"/>
<path d="M1009.54 241.045C1006.15 246.089 1005.93 251.017 1006.31 252.952C1005.5 250.752 1005.19 248.395 1005.42 246.059C1005.65 243.723 1006.42 241.472 1007.65 239.476L1009.54 241.045Z" fill="#9A4A4D"/>
<path d="M1035.76 214.543C1034.42 217.253 1032.35 219.532 1029.78 221.117C1031.37 221.037 1032.87 220.388 1034.02 219.289C1034.63 218.662 1035.09 217.916 1035.39 217.099C1035.69 216.282 1035.81 215.411 1035.76 214.543Z" fill="#9A4A4D"/>
<path d="M927.582 289.372L990.15 288.804C996.792 347.677 993.885 353.404 994.001 382.243C994.049 397.01 988.947 439.701 989.063 451.194C989.063 451.887 986.002 455.044 981.285 454.602C976.568 454.159 975.192 452.599 975.163 452.108C975.038 450.405 973.151 448.017 972.891 446.333C971.168 435.34 969.127 421.18 967.376 409.918C966.003 401.358 966.202 392.619 967.963 384.13L958.731 341.093C957.942 347.629 957.201 353.385 955.844 359.979L955.17 363.078C954.843 366.929 949.163 367.891 947.219 368.276C941.963 369.374 937.189 368.209 932.327 365.937C927.466 363.665 925.214 360.855 924.993 356.465L925.089 353.914C924.964 350.266 925.089 347.253 924.867 343.807C922.836 312.34 924.694 295.831 927.582 289.372Z" fill="#C8856A"/>
<path d="M990.215 286.126C990.215 286.126 993.103 306.341 994.325 324.207C995.601 346.261 995.694 368.369 994.604 390.433C993.449 411.61 990.754 435.29 990.754 435.29C990.754 435.29 987.866 438.178 979.78 438.033C971.695 437.889 970.058 435.29 970.058 435.29C970.058 435.29 965.245 407.548 965.245 400.078C965.339 394.841 965.958 389.627 967.093 384.513L958.834 342.756C958.834 342.756 956.611 359.765 955.234 363.086C953.858 366.407 948.496 369.824 938.052 367.167C927.608 364.51 925.866 362.759 925.047 356.473C924.229 350.187 923.266 323.302 923.469 311.231C923.671 299.16 928.696 285.116 928.696 285.116L990.215 286.126Z" fill="#013A43"/>
<path d="M933.662 292.55C928.194 308.77 928.55 330.255 928.791 344.463C928.916 351.528 928.916 358.488 928.897 363.898C928.599 363.713 928.313 363.511 928.04 363.291C928.04 357.978 928.04 351.278 927.934 344.482C927.693 330.207 927.337 308.635 932.853 292.271L933.662 292.55Z" fill="#243434"/>
<path d="M931.587 318.397C932.902 318.417 934.193 318.053 935.303 317.348C937.796 315.75 939.471 312.352 940.289 307.221C942.108 295.863 942.811 290.722 942.811 290.665L941.964 290.559C941.964 290.559 941.261 295.709 939.442 307.087C938.662 311.957 937.113 315.172 934.841 316.626C933.233 317.646 931.289 317.81 928.882 317.136L928.651 317.954C929.605 318.238 930.593 318.387 931.587 318.397Z" fill="#243434"/>
<path d="M958.779 342.754L961.195 317.842C961.195 317.842 974.277 315.676 980.216 306.667C980.216 306.667 979.581 317.255 964.343 321.616L962.793 341.503L967 384.54L958.779 342.754Z" fill="#243434"/>
<path d="M916.254 449.19C917.159 444.772 920.21 442.115 925.245 442.038C930.279 441.961 932.666 448.189 932.387 451.51L916.254 449.19Z" fill="#263238"/>
<path d="M933.619 402.1C933.14 401.732 932.581 401.482 931.987 401.37C931.394 401.258 930.782 401.287 930.202 401.456C929.682 401.638 929.374 401.946 930.741 402.572L921.163 452.906C922.65 453.656 924.318 453.972 925.976 453.821L935.602 403.516C934.841 403.203 934.162 402.719 933.619 402.1Z" fill="#E0E0E0"/>
<path opacity="0.1" d="M935.06 402.354C934.58 401.986 934.022 401.736 933.428 401.624C932.834 401.512 932.223 401.541 931.642 401.709C931.443 401.764 931.26 401.869 931.112 402.014C930.964 402.158 930.855 402.339 930.795 402.537L921.169 452.89C921.147 453.106 921.184 453.324 921.275 453.52C921.367 453.717 921.51 453.885 921.689 454.007C922.167 454.377 922.726 454.629 923.32 454.742C923.913 454.856 924.525 454.828 925.106 454.661C925.317 454.609 925.51 454.502 925.667 454.352C925.824 454.202 925.94 454.013 926.002 453.805L935.608 403.5C935.629 403.277 935.589 403.053 935.493 402.851C935.396 402.649 935.246 402.477 935.06 402.354Z" fill="black"/>
<path d="M923.498 440.917C923.335 442.534 928.061 443.275 928.369 441.639C929.12 442.139 929.697 442.467 929.168 444.777C928.639 447.087 932.142 447.915 931.7 451.197C930.641 459.245 927.098 457.522 922.632 456.973C920.303 456.684 917.646 455.048 916.856 453.123C916.856 453.123 917.136 449.513 917.347 448.666C918.185 445.345 921.198 445.894 921.689 443.612C921.9 442.428 922.285 440.994 923.498 440.917Z" fill="#013A43"/>
<path d="M931.843 401.246C931.626 401.28 931.422 401.373 931.252 401.513C931.083 401.654 930.954 401.838 930.881 402.045C930.847 402.26 930.872 402.48 930.954 402.682C931.035 402.884 931.169 403.059 931.343 403.191C931.801 403.584 932.346 403.864 932.933 404.008C933.52 404.152 934.133 404.155 934.721 404.019C934.935 403.993 935.136 403.903 935.297 403.76C935.459 403.617 935.572 403.428 935.624 403.219C935.675 403.01 935.661 402.79 935.584 402.589C935.507 402.388 935.371 402.215 935.193 402.093C934.739 401.701 934.2 401.42 933.619 401.273C933.037 401.126 932.429 401.117 931.843 401.246Z" fill="#013A43"/>
<path d="M936.684 402.544C935.754 401.825 934.668 401.336 933.514 401.117C932.36 400.898 931.17 400.955 930.042 401.283C929.63 401.379 929.251 401.582 928.945 401.874C928.639 402.165 928.416 402.533 928.3 402.939L927.837 405.365C927.79 405.782 927.854 406.203 928.023 406.587C928.192 406.971 928.46 407.303 928.8 407.55C929.73 408.267 930.817 408.754 931.97 408.974C933.124 409.193 934.314 409.137 935.442 408.811C935.853 408.714 936.232 408.51 936.538 408.219C936.844 407.928 937.067 407.561 937.184 407.155L937.646 404.72C937.693 404.304 937.629 403.884 937.459 403.502C937.29 403.119 937.023 402.789 936.684 402.544Z" fill="#E0E0E0"/>
<path d="M930.052 401.283C929.62 401.338 929.217 401.528 928.899 401.826C928.582 402.124 928.367 402.515 928.286 402.942C928.205 403.37 928.261 403.813 928.447 404.206C928.633 404.6 928.939 404.925 929.32 405.134C930.251 405.851 931.337 406.338 932.491 406.557C933.645 406.777 934.834 406.721 935.962 406.395C936.394 406.34 936.798 406.15 937.115 405.852C937.432 405.554 937.647 405.163 937.728 404.735C937.809 404.308 937.753 403.865 937.567 403.472C937.381 403.078 937.076 402.753 936.694 402.544C935.765 401.825 934.678 401.336 933.524 401.117C932.37 400.898 931.18 400.955 930.052 401.283Z" fill="#EBEBEB"/>
<path d="M948.783 370.314C944.625 366.531 936.568 364.895 931.321 366.743C928.809 367.619 927.471 369.13 927.394 370.815L925.344 401.58C925.344 402.301 925.989 403.177 927.413 404.015C930.69 405.764 934.393 406.555 938.098 406.296C939.735 406.113 940.716 405.594 940.986 404.91L950.901 375.666C951.411 374.04 950.785 372.134 948.783 370.314Z" fill="#013A43"/>
<path d="M923.811 383.404V383.481C923.811 384.443 924.773 385.829 926.256 387.244C926.477 387.456 926.698 387.658 926.949 387.87C929.171 389.806 931.804 391.211 934.649 391.98C940.348 393.347 946.922 393.232 947.702 391.451C948.482 389.67 949.271 387.803 949.926 386.195C952.132 380.399 953.892 374.442 955.191 368.378C956.154 363.257 956.76 360.369 955.855 360.051L955.21 363.103C955.21 363.103 950.744 368.618 937.951 365.702C932.83 364.537 929.73 362.814 927.863 361.1C927.622 360.889 927.411 360.677 927.218 360.475C926.075 359.423 925.304 358.027 925.023 356.499L924.783 353.939C923.705 353.814 923.868 355.469 923.916 359.002C923.965 362.535 924.504 373.999 924.157 377.955C924.061 379.534 923.907 381.556 923.811 383.404Z" fill="#243434"/>
<path d="M926.216 387.213C926.437 387.425 926.659 387.627 926.909 387.839L926.967 387.483C927.092 386.52 927.188 385.558 927.265 384.547C927.483 382.166 927.576 379.776 927.544 377.385C927.544 373.756 927.342 370.137 927.467 366.508C927.525 364.843 927.631 363.197 927.766 361.541L927.823 361.079C927.583 360.867 927.371 360.656 927.178 360.453L927.121 360.954C926.947 362.783 926.813 364.612 926.736 366.441C926.582 369.896 926.659 373.343 926.736 376.798C926.736 379.311 926.736 381.813 926.533 384.306C926.437 385.269 926.351 386.241 926.216 387.213Z" fill="#263238"/>
<path d="M931.025 365.987C931.037 365.784 930.99 365.582 930.888 365.406C930.786 365.231 930.635 365.089 930.453 364.999C930.271 364.909 930.066 364.875 929.865 364.901C929.663 364.927 929.474 365.012 929.321 365.145C929.167 365.278 929.057 365.454 929.003 365.65C928.95 365.846 928.955 366.053 929.019 366.246C929.083 366.439 929.202 366.608 929.362 366.733C929.522 366.859 929.715 366.934 929.918 366.949C930.192 366.968 930.462 366.877 930.67 366.696C930.877 366.516 931.005 366.261 931.025 365.987ZM931.082 372.398C931.097 372.193 931.051 371.988 930.949 371.81C930.847 371.631 930.695 371.487 930.512 371.394C930.328 371.302 930.122 371.267 929.918 371.292C929.714 371.317 929.522 371.402 929.367 371.536C929.211 371.67 929.099 371.847 929.044 372.045C928.989 372.243 928.994 372.453 929.058 372.648C929.122 372.843 929.242 373.015 929.404 373.142C929.565 373.268 929.761 373.344 929.966 373.36C930.24 373.381 930.512 373.293 930.721 373.114C930.93 372.936 931.06 372.681 931.082 372.407V372.398ZM929.956 380.426C930.161 380.44 930.366 380.394 930.544 380.292C930.723 380.191 930.867 380.039 930.959 379.855C931.051 379.671 931.087 379.465 931.062 379.261C931.037 379.057 930.952 378.865 930.817 378.71C930.683 378.554 930.506 378.442 930.308 378.387C930.11 378.332 929.901 378.337 929.706 378.401C929.51 378.465 929.339 378.585 929.212 378.747C929.085 378.909 929.009 379.104 928.993 379.309C928.983 379.446 929 379.583 929.042 379.713C929.085 379.843 929.153 379.964 929.243 380.067C929.332 380.171 929.441 380.256 929.564 380.318C929.686 380.379 929.819 380.416 929.956 380.426ZM927.935 386.798C927.922 387.001 927.969 387.203 928.071 387.378C928.173 387.554 928.324 387.696 928.506 387.786C928.689 387.876 928.893 387.91 929.095 387.884C929.296 387.858 929.485 387.773 929.638 387.639C929.792 387.506 929.902 387.331 929.956 387.135C930.01 386.939 930.004 386.732 929.94 386.539C929.877 386.346 929.757 386.176 929.597 386.051C929.437 385.926 929.244 385.851 929.042 385.835C928.774 385.814 928.509 385.897 928.303 386.068C928.096 386.239 927.964 386.483 927.935 386.75V386.798Z" fill="#263238"/>
<path d="M929.96 479.79C929.488 484.517 928.622 487.636 926.831 490.379C925.041 493.122 921.816 493.844 918.64 492.901C915.463 491.958 911.42 489.609 910.66 485.479C909.899 481.35 910.207 478.549 911.112 474.178L929.96 479.79Z" fill="#263238"/>
<path d="M917.71 446.328C916.574 446.646 915.554 452.749 914.533 459.102C913.446 465.908 912.156 467.929 911.193 473.541C910.096 479.913 910.461 482.07 912.55 486.055C914.639 490.04 922.436 494.14 926.575 488.75C929.944 484.36 930.137 480.087 930.108 473.656C930.046 468.552 930.277 463.448 930.801 458.37C931.254 453.557 932.938 449.13 931.764 448.542C931.648 449.245 930.397 454.587 929.53 453.962C929.136 453.866 929.088 453.192 929.232 451.95C929.338 451.411 929.231 450.852 928.934 450.391C928.545 449.999 928.037 449.749 927.49 449.678C926.19 449.361 924.409 448.889 923.091 448.716C922.321 448.61 922.754 448.619 921.984 448.542C921.032 448.34 920.048 448.34 919.096 448.542C918.682 448.735 918.624 449.139 918.499 449.592C918.374 450.044 918.249 450.65 918.095 451.093C918.027 451.266 917.768 451.632 917.585 451.603C917.402 451.575 917.229 450.737 917.267 450.381C917.306 450.025 917.267 449.418 917.334 449.004C917.402 448.59 917.537 447.445 917.71 446.328Z" fill="#243434"/>
<path d="M911.506 471.325C911.333 472.287 910.467 477.986 912.084 479.16C913.701 480.335 914.972 475.656 914.972 475.656C914.972 475.656 919.255 474.53 925.31 477.476C924.954 478.438 925.772 481.769 927.485 481.143C929.199 480.517 929.998 474.251 930.007 474.155C930.007 480.296 929.748 484.435 926.475 488.7C922.336 494.09 914.539 489.97 912.45 486.004C910.361 482.038 909.995 479.882 911.092 473.491C911.266 472.874 911.372 471.902 911.506 471.325Z" fill="#013A43"/>
<path d="M915.554 476.082C915.429 478.392 913.398 477.516 913.215 474.244C912.936 469.344 914.341 464.733 914.544 459.102C915.564 452.749 916.392 446.376 917.72 446.328C917.624 447.435 917.364 449.803 917.364 449.803C917.306 450.275 917.21 451.469 917.21 451.469C916.604 456.224 915.121 461.749 915.121 466.678C915.112 471.019 915.67 473.772 915.554 476.082Z" fill="#263238"/>
<path d="M924.674 477.377C925.193 475.124 925.964 474.489 926.599 470.215C927.234 465.941 928.996 458.423 930.083 453.793C930.391 452.359 931.729 448.585 931.739 448.537C932.557 448.98 932.702 451.618 931.883 454.477C931.065 457.335 930.603 459.087 930.074 461.85C928.717 467.308 928.312 473.16 927.436 476.289C926.56 479.417 924.144 479.639 924.674 477.377Z" fill="#263238"/>
<path d="M925.223 477.537C925.159 477.528 925.097 477.508 925.04 477.479C921.914 475.856 918.332 475.337 914.875 476.006C914.811 476.02 914.746 476.022 914.682 476.011C914.618 475.999 914.557 475.976 914.503 475.941C914.448 475.906 914.401 475.861 914.364 475.807C914.327 475.754 914.301 475.694 914.287 475.631C914.261 475.503 914.286 475.371 914.356 475.261C914.426 475.152 914.536 475.074 914.663 475.044C918.359 474.309 922.196 474.866 925.531 476.622C925.587 476.654 925.637 476.697 925.677 476.748C925.716 476.8 925.746 476.858 925.763 476.921C925.78 476.984 925.784 477.049 925.776 477.114C925.767 477.178 925.746 477.24 925.713 477.296C925.667 477.382 925.594 477.452 925.506 477.495C925.418 477.538 925.319 477.553 925.223 477.537Z" fill="#F0F0F0"/>
<path d="M926.716 472.967L926.553 472.919C926.553 472.919 920.719 469.925 914.693 471.08C914.565 471.103 914.432 471.074 914.324 471.001C914.216 470.927 914.142 470.814 914.116 470.686C914.093 470.558 914.122 470.427 914.196 470.32C914.27 470.214 914.383 470.141 914.51 470.118C920.883 468.914 926.784 471.927 927.024 472.043C927.152 472.082 927.259 472.171 927.321 472.289C927.383 472.408 927.396 472.546 927.356 472.673C927.317 472.801 927.228 472.908 927.11 472.97C926.992 473.032 926.853 473.045 926.726 473.005L926.716 472.967Z" fill="#F0F0F0"/>
<path d="M914.162 467.306C914.069 467.291 913.982 467.251 913.911 467.189C913.839 467.128 913.786 467.049 913.757 466.959C913.721 466.833 913.737 466.697 913.8 466.582C913.863 466.467 913.968 466.381 914.094 466.343C920.12 464.572 927.821 467.662 928.061 467.806C928.118 467.838 928.168 467.881 928.207 467.932C928.247 467.984 928.277 468.042 928.294 468.105C928.311 468.168 928.315 468.233 928.307 468.298C928.298 468.362 928.277 468.424 928.244 468.48C928.176 468.591 928.069 468.671 927.944 468.705C927.819 468.739 927.685 468.724 927.571 468.663C927.513 468.663 919.976 465.631 914.373 467.287C914.305 467.307 914.233 467.314 914.162 467.306Z" fill="#F0F0F0"/>
<path d="M915.309 463.189C915.201 463.17 915.102 463.116 915.028 463.035C914.953 462.954 914.907 462.85 914.898 462.741C914.888 462.631 914.914 462.521 914.973 462.428C915.032 462.335 915.12 462.264 915.223 462.226C921.855 460.147 928.43 463.997 928.699 464.151C928.757 464.185 928.808 464.229 928.849 464.283C928.889 464.337 928.918 464.398 928.933 464.464C928.949 464.529 928.951 464.597 928.939 464.663C928.928 464.729 928.903 464.792 928.866 464.848C928.829 464.904 928.781 464.952 928.725 464.989C928.669 465.025 928.605 465.05 928.539 465.062C928.473 465.073 928.405 465.071 928.34 465.055C928.275 465.039 928.214 465.01 928.16 464.97C928.16 464.97 921.691 461.264 915.521 463.189C915.451 463.203 915.379 463.203 915.309 463.189Z" fill="#F0F0F0"/>
<path d="M915.954 458.141C915.863 458.126 915.777 458.087 915.706 458.028C915.635 457.968 915.581 457.891 915.55 457.804C915.529 457.743 915.521 457.678 915.526 457.614C915.531 457.549 915.548 457.486 915.578 457.429C915.608 457.371 915.649 457.32 915.698 457.279C915.748 457.237 915.806 457.207 915.868 457.188C922.086 455.138 929.132 459.113 929.344 459.248C929.454 459.319 929.532 459.431 929.561 459.558C929.589 459.686 929.567 459.82 929.498 459.931C929.465 459.987 929.42 460.034 929.368 460.072C929.316 460.11 929.257 460.137 929.194 460.151C929.131 460.165 929.066 460.167 929.002 460.156C928.939 460.145 928.878 460.121 928.824 460.085C928.766 460.085 921.922 456.235 916.147 458.16C916.082 458.164 916.017 458.158 915.954 458.141Z" fill="#EBEBEB"/>
<path d="M1014.06 471.863C1014.35 471.863 1014.78 475.001 1013.24 476.339C1011.45 477.879 1006.21 480.42 999.282 479.535C992.351 478.649 990.417 477.272 987.644 474.953C984.872 472.633 982.312 470.207 979.183 469.524C976.295 468.888 971.829 467.733 970.905 466.828C969.981 465.923 970.087 461.929 970.087 461.929L1014.06 471.863Z" fill="#263238"/>
<path d="M972.689 444.616C970.61 444.722 971.486 449.612 970.629 451.701C969.992 455.546 969.85 459.457 970.206 463.339C970.591 465.389 976.607 466.65 979.649 467.805C986.473 470.491 992.384 478.394 1000.95 477.816C1006.29 477.768 1012.3 476.026 1013.68 473.542C1019.06 462.655 992.499 462.193 990.391 446.667C990.285 445.704 989.717 445.232 987.619 445.194C985.212 445.194 982.257 445.742 980.505 447.543C979.803 448.582 980.505 450.016 979.918 451.056C978.58 451.489 977.714 449.131 976.847 448.351C975.394 447.311 972.054 447.177 972.689 444.616Z" fill="#243434"/>
<path d="M988.203 473.144C987.032 472.135 985.804 471.193 984.526 470.323C984.526 470.323 992.968 473.644 996.732 471.065C999.148 469.399 997.993 467.388 997.935 466.743C997.878 466.098 1003.58 463.354 1005.93 463.065L1006.9 463.017C1007.55 463.383 1008.33 463.71 1008.67 463.884C1015.7 467.455 1015.41 470.458 1013.72 473.51C1012.35 475.993 1007.95 477.938 1001.09 477.947C996.393 477.766 991.875 476.083 988.203 473.144Z" fill="#013A43"/>
<path d="M997.191 464.888C1002.12 466.814 1000.02 467.776 998.644 467.969C997.268 468.161 990.299 464.176 985.235 460.191C979.96 456.023 975.35 451.624 973.386 450.093C972.654 449.525 971.865 448.823 971.172 448.168C971.297 447.08 971.403 446.099 971.499 445.579C971.559 445.312 971.706 445.072 971.917 444.898C972.128 444.724 972.39 444.625 972.664 444.616L972.933 446.349C973.357 446.692 973.85 446.942 974.377 447.08C975.278 447.314 976.114 447.748 976.822 448.351C977.468 449.258 978.183 450.114 978.959 450.912C983.281 456.36 992.272 462.925 997.191 464.888Z" fill="#263238"/>
<path d="M998.337 467.233C998.225 467.231 998.117 467.194 998.029 467.127C997.979 467.086 997.937 467.035 997.907 466.978C997.876 466.921 997.857 466.859 997.851 466.794C997.845 466.73 997.851 466.665 997.87 466.603C997.889 466.541 997.92 466.484 997.961 466.434C999.121 465.23 1000.53 464.288 1002.08 463.672C1003.63 463.056 1005.3 462.78 1006.97 462.862C1007.03 462.868 1007.1 462.887 1007.15 462.917C1007.21 462.947 1007.26 462.988 1007.3 463.037C1007.34 463.086 1007.37 463.143 1007.39 463.204C1007.41 463.265 1007.41 463.329 1007.4 463.392C1007.4 463.456 1007.38 463.518 1007.35 463.575C1007.32 463.631 1007.28 463.682 1007.23 463.722C1007.18 463.763 1007.13 463.793 1007.06 463.81C1007 463.828 1006.94 463.833 1006.88 463.825C1005.37 463.766 1003.86 464.022 1002.45 464.578C1001.05 465.133 999.774 465.975 998.712 467.05C998.668 467.108 998.612 467.154 998.546 467.186C998.481 467.218 998.409 467.234 998.337 467.233Z" fill="#F0F0F0"/>
<path d="M994.053 464.814C993.941 464.815 993.832 464.778 993.745 464.708C993.644 464.628 993.578 464.512 993.562 464.384C993.545 464.256 993.58 464.127 993.658 464.024C994.791 462.793 996.174 461.818 997.715 461.166C999.256 460.513 1000.92 460.198 1002.59 460.241C1002.7 460.271 1002.8 460.339 1002.87 460.433C1002.93 460.526 1002.96 460.64 1002.95 460.755C1002.94 460.869 1002.9 460.977 1002.82 461.059C1002.73 461.141 1002.63 461.192 1002.51 461.204C1001 461.18 999.505 461.471 998.113 462.057C996.721 462.644 995.466 463.514 994.428 464.612C994.386 464.672 994.33 464.722 994.265 464.758C994.2 464.793 994.127 464.812 994.053 464.814Z" fill="#F0F0F0"/>
<path d="M990.041 462.075C989.948 462.076 989.857 462.05 989.778 462.001C989.699 461.952 989.636 461.881 989.596 461.797C989.555 461.714 989.539 461.62 989.55 461.528C989.561 461.436 989.597 461.349 989.656 461.276C990.817 460.071 992.222 459.129 993.778 458.513C995.334 457.897 997.004 457.622 998.675 457.705C998.804 457.72 998.922 457.784 999.003 457.885C999.084 457.986 999.122 458.115 999.108 458.244C999.091 458.372 999.026 458.488 998.926 458.569C998.825 458.649 998.697 458.688 998.569 458.677C997.061 458.618 995.558 458.873 994.154 459.426C992.75 459.98 991.477 460.82 990.416 461.892C990.372 461.95 990.315 461.996 990.25 462.028C990.185 462.059 990.113 462.076 990.041 462.075Z" fill="#F0F0F0"/>
<path d="M986.548 459.594C986.438 459.595 986.33 459.561 986.24 459.498C986.188 459.46 986.144 459.412 986.111 459.356C986.078 459.301 986.057 459.24 986.048 459.176C986.039 459.112 986.043 459.048 986.059 458.985C986.076 458.923 986.104 458.865 986.144 458.814C987.251 457.562 988.613 456.561 990.139 455.878C991.665 455.196 993.319 454.848 994.99 454.858C995.054 454.86 995.117 454.876 995.175 454.903C995.233 454.93 995.285 454.968 995.329 455.016C995.372 455.063 995.405 455.119 995.426 455.179C995.447 455.24 995.456 455.304 995.452 455.368C995.449 455.433 995.432 455.496 995.404 455.554C995.376 455.612 995.337 455.664 995.288 455.707C995.24 455.75 995.184 455.783 995.123 455.804C995.062 455.825 994.997 455.834 994.932 455.83C993.423 455.835 991.932 456.154 990.553 456.768C989.174 457.381 987.938 458.275 986.924 459.392C986.879 459.45 986.823 459.499 986.758 459.534C986.693 459.569 986.622 459.589 986.548 459.594Z" fill="#F0F0F0"/>
<path d="M982.826 456.654C982.716 456.655 982.608 456.621 982.518 456.558C982.416 456.48 982.348 456.365 982.328 456.238C982.308 456.11 982.339 455.98 982.412 455.875C984.222 453.391 988.477 451.63 992.115 451.88C992.226 451.909 992.323 451.976 992.39 452.069C992.457 452.162 992.489 452.275 992.481 452.389C992.473 452.503 992.425 452.611 992.346 452.694C992.267 452.777 992.162 452.829 992.048 452.842C988.775 452.621 984.809 454.238 983.202 456.443C983.159 456.504 983.103 456.555 983.038 456.592C982.973 456.629 982.901 456.65 982.826 456.654Z" fill="#F0F0F0"/>
<path d="M995.054 377.158C995.054 378.12 995.006 378.996 994.977 379.911C989.444 379.342 983.856 379.608 978.401 380.7C980.808 378.708 989.471 376.118 995.054 377.158Z" fill="#C8856A"/>
<path d="M994.895 383.467C994.895 384.334 994.827 385.19 994.789 386.037C993.537 385.931 985.798 385.238 982.381 383.881C986.538 383.457 990.719 383.319 994.895 383.467Z" fill="#C8856A"/>
<path d="M952.625 352.72C952.625 352.72 949.997 348.927 943.547 348.148C937.098 347.368 933.729 350.872 933.729 350.872C933.729 350.872 945.713 349.601 952.625 352.72ZM933.017 353.452C941.333 355.098 945.136 354.761 948.928 354.01C948.928 353.971 936.963 352.489 933.017 353.452Z" fill="#C8856A"/>
<path d="M972.772 380.031C973.456 383.544 972.772 387.029 971.993 391.072C971.077 395.275 970.551 399.555 970.424 403.855C970.298 411.97 973.1 429.229 974.544 437.497C974.216 437.43 973.918 437.353 973.639 437.276C972.176 428.844 969.451 411.902 969.577 403.845C969.696 399.493 970.225 395.161 971.155 390.908C971.954 386.788 972.589 383.544 971.935 380.185C970.607 373.447 966.727 336.521 966.506 318.261H967.363C967.574 336.473 971.454 373.264 972.772 380.031Z" fill="#243434"/>
<path d="M927.643 292.603C929.76 282.977 932.985 268.702 933.062 266.613C933.37 257.95 931.137 251.52 930.338 246.139C928.586 234.424 932.975 224.586 935.709 222.286C935.709 222.286 940.089 220.495 943.304 219.148C953.517 214.864 957.984 214.277 965.174 216.799C966.377 217.222 975.859 221.545 975.869 221.545C979.124 224.511 981.845 228.015 983.916 231.902C986.89 237.216 988.353 241.653 987.959 253.031C987.843 256.448 987.708 262.561 987.843 267.47C988.142 277.904 988.931 282.207 990.259 291.689C978.256 298.985 948.05 302.383 927.643 292.603Z" fill="#263238"/>
<path d="M947.374 208.23L946.672 208.509C945.82 208.854 944.894 208.972 943.983 208.852C943.072 208.732 942.208 208.379 941.474 207.826C940.871 207.178 940.174 206.626 939.404 206.19C938.442 205.814 937.363 206.084 936.353 205.93C935.464 205.795 934.654 205.344 934.071 204.659C933.446 203.918 933.648 202.878 933.205 202.05C932.762 201.223 932.108 200.674 932.079 199.654C932.099 198.829 932.296 198.018 932.656 197.276C931.501 198.027 930.048 198.797 928.806 198.181C929.403 198.181 930.144 198.017 930.288 197.459C930.314 197.309 930.306 197.155 930.264 197.008C930.223 196.861 930.149 196.726 930.048 196.612C929.393 195.736 928.209 195.418 927.42 194.687C926.868 194.123 926.56 193.367 926.56 192.578C926.56 191.79 926.868 191.033 927.42 190.47C928.065 189.854 928.979 189.508 929.509 188.805C929.809 188.404 929.956 187.909 929.923 187.409C929.826 186.042 928.594 185.407 927.872 184.416C927.138 183.38 926.834 182.1 927.025 180.844C927.179 179.714 927.753 178.683 928.633 177.957C929.451 177.379 930.558 177.408 931.386 176.869C932.695 176.031 932.348 173.981 932.907 172.605C933.159 172.085 933.518 171.626 933.961 171.256C934.404 170.886 934.921 170.614 935.477 170.458C936.589 170.153 937.741 170.02 938.894 170.063C938.527 169.317 938.335 168.497 938.332 167.666C938.329 166.834 938.514 166.013 938.875 165.264C939.236 164.515 939.762 163.857 940.414 163.341C941.066 162.825 941.827 162.464 942.638 162.286C943.543 162.083 944.506 162.122 945.392 161.833C947.028 161.304 948.116 159.812 949.184 158.474C950.253 157.136 951.6 155.769 953.314 155.673C955.48 155.557 957.26 157.521 959.417 157.761C961.573 158.002 963.354 156.654 965.404 156.452C966.518 156.394 967.628 156.614 968.636 157.091C969.644 157.568 970.518 158.288 971.179 159.186C971.757 159.889 972.075 160.861 972.854 161.342C973.817 161.958 975.155 161.833 976.262 161.872C977.525 161.925 978.765 162.235 979.904 162.785C981.043 163.334 982.057 164.111 982.885 165.068C983.284 165.463 983.589 165.944 983.775 166.474C983.962 167.004 984.026 167.57 983.963 168.129C983.78 168.976 983.135 169.803 983.462 170.602C983.715 171.057 984.101 171.424 984.569 171.652C985.669 172.331 986.556 173.305 987.13 174.462C987.405 175.037 987.533 175.672 987.503 176.308C987.473 176.945 987.285 177.564 986.956 178.111C986.943 177.658 986.839 177.212 986.651 176.8C986.462 176.387 986.193 176.017 985.86 175.71C985.526 175.403 985.134 175.166 984.708 175.013C984.281 174.86 983.828 174.794 983.375 174.819C983.907 175.021 984.384 175.344 984.769 175.761C985.155 176.179 985.439 176.68 985.599 177.225C985.743 177.769 985.758 178.339 985.641 178.889C985.523 179.439 985.278 179.954 984.925 180.392C984.415 181.018 983.655 181.538 983.52 182.317C983.484 182.694 983.574 183.073 983.776 183.393C983.978 183.714 984.281 183.958 984.636 184.088C985 184.214 985.387 184.258 985.769 184.218C986.151 184.178 986.521 184.055 986.85 183.857C986.43 184.614 985.736 185.181 984.911 185.443C984.086 185.704 983.192 185.64 982.413 185.263C983.35 185.997 984.048 186.992 984.42 188.123C984.791 189.254 984.82 190.469 984.502 191.616C984.123 192.923 983.374 194.093 982.346 194.985C981.383 195.89 979.824 196.198 978.938 197.151C978.052 198.104 977.783 199.731 976.724 200.664C975.511 201.723 973.605 201.28 972.537 202.724C972.238 203.138 972.065 203.619 971.738 204.014C971.3 204.476 970.744 204.809 970.13 204.977C965.625 206.44 960.504 203.591 956.028 205.227C954.546 205.776 953.294 206.777 951.86 207.412C950.905 207.757 949.891 207.914 948.876 207.874C948.358 207.9 947.849 208.021 947.374 208.23Z" fill="#263238"/>
<path d="M937.836 192.56C940.165 189.605 943.477 190.278 945.094 192.762C945.681 193.657 946.952 194.687 947.982 193.725C948.183 193.424 948.32 193.085 948.383 192.728C948.446 192.372 948.434 192.006 948.348 191.655C948.28 191.029 948.107 190.818 948.348 190.336C948.588 189.855 949.118 189.788 949.31 189.258C949.734 188.113 949.021 186.775 949.416 185.62C949.686 184.849 950.379 184.243 950.475 183.425C950.43 182.905 950.344 182.39 950.215 181.885C950.119 180.797 950.908 179.748 950.696 178.679C950.446 177.438 949.599 176.369 950.754 175.262C951.717 174.299 953.122 174.251 954.113 173.096C954.951 172.134 955.827 170.969 957.117 170.796C958.407 170.622 959.417 171.392 960.601 171.45C961.785 171.508 963.017 170.805 964.173 170.285C965.328 169.766 966.772 169.467 967.773 170.285C968.254 170.661 968.552 171.248 969.043 171.604C970.324 172.567 972.124 171.777 973.413 172.644C974.247 173.334 974.977 174.142 975.579 175.041C977.373 177.739 978.232 180.952 978.024 184.185C977.88 186.11 978.583 188.459 978.708 192.059C979.179 205.641 975.512 208.606 971.902 210.349C969.736 211.379 968.533 211.581 965.039 211.658L965.212 216.798C965.212 216.798 968.812 220.86 969.332 231.978C951.139 223.796 947.106 217.674 947.087 217.645L946.124 202.879C945.448 203.342 944.654 203.602 943.835 203.628C943.016 203.653 942.207 203.444 941.504 203.023C937.711 200.983 935.507 195.505 937.836 192.56Z" fill="#B16668"/>
<path d="M958.656 173.837C960.44 173.764 962.22 174.062 963.883 174.713C964.241 174.853 964.537 175.116 964.72 175.454C964.796 175.664 964.819 175.889 964.785 176.109C964.751 176.33 964.663 176.538 964.528 176.715C964.017 177.447 963.411 177.678 963.257 178.64C963.182 179.074 963.237 179.52 963.416 179.922C963.594 180.325 963.888 180.665 964.261 180.9C964.633 181.135 965.066 181.254 965.506 181.242C965.946 181.231 966.373 181.089 966.732 180.835C966.526 180.914 966.3 180.928 966.086 180.876C965.871 180.825 965.677 180.71 965.529 180.546C965.385 180.377 965.283 180.177 965.23 179.961C965.176 179.746 965.173 179.521 965.221 179.305C965.586 177.456 967.791 176.965 967.81 174.838C967.8 174.263 967.65 173.698 967.371 173.195C967.093 172.691 966.695 172.264 966.212 171.95C965.442 171.469 964.508 171.305 963.7 170.891C962.025 170.035 961.004 168.177 959.281 167.436C958.697 167.187 958.061 167.08 957.427 167.124C956.793 167.167 956.179 167.36 955.633 167.686C955.092 168.024 954.643 168.491 954.327 169.046C954.011 169.6 953.838 170.225 953.823 170.863C953.795 173.452 956.499 173.741 958.656 173.837Z" fill="#263238"/>
<path d="M967.241 203.434L961.012 201.083C961.144 200.67 961.36 200.288 961.645 199.96C961.931 199.633 962.28 199.367 962.671 199.179C963.063 198.991 963.488 198.885 963.922 198.867C964.356 198.849 964.789 198.92 965.195 199.075C966.03 199.4 966.708 200.034 967.089 200.846C967.469 201.657 967.524 202.583 967.241 203.434Z" fill="#9A4A4D"/>
<path d="M963.74 198.882C963.72 199.672 964.015 200.438 964.559 201.011C965.103 201.584 965.852 201.918 966.642 201.94C966.886 201.94 967.13 201.915 967.369 201.866C967.284 201.253 967.038 200.674 966.656 200.188C966.273 199.702 965.769 199.326 965.193 199.1C964.731 198.919 964.235 198.845 963.74 198.882Z" fill="#FFA8A7"/>
<path d="M965.719 184.86L966.989 196.96L972.948 193.889L965.719 184.86Z" fill="#9A4A4D"/>
<path d="M964.983 211.613C960.613 211.526 951.218 209.466 948.744 203.758C948.744 203.758 949.235 207.868 954.693 210.881C958.996 213.259 965.031 213.576 965.031 213.576L964.983 211.613Z" fill="#9A4A4D"/>
<path d="M960.936 188.859C960.912 189.238 960.777 189.602 960.547 189.905C960.317 190.207 960.003 190.435 959.644 190.56C959.285 190.684 958.897 190.699 958.529 190.603C958.161 190.508 957.83 190.305 957.577 190.021C957.324 189.738 957.161 189.386 957.108 189.009C957.055 188.633 957.114 188.249 957.279 187.907C957.443 187.564 957.706 187.278 958.033 187.084C958.36 186.89 958.737 186.798 959.116 186.818C959.37 186.831 959.619 186.895 959.848 187.005C960.077 187.115 960.282 187.27 960.451 187.459C960.62 187.649 960.75 187.87 960.833 188.11C960.916 188.351 960.951 188.605 960.936 188.859Z" fill="#263238"/>
<path d="M975.229 187.906C975.156 188.279 974.974 188.622 974.706 188.892C974.438 189.162 974.096 189.346 973.724 189.422C973.351 189.498 972.964 189.462 972.612 189.318C972.26 189.174 971.959 188.929 971.746 188.614C971.533 188.299 971.418 187.928 971.415 187.548C971.413 187.168 971.523 186.796 971.732 186.478C971.941 186.16 972.239 185.911 972.589 185.763C972.939 185.615 973.325 185.573 973.699 185.644C973.948 185.691 974.186 185.787 974.398 185.927C974.61 186.066 974.792 186.246 974.935 186.457C975.077 186.667 975.176 186.903 975.227 187.152C975.277 187.401 975.278 187.657 975.229 187.906Z" fill="#263238"/>
<path d="M974.309 180.34C973.955 180.267 973.589 180.265 973.234 180.333C972.878 180.401 972.539 180.539 972.237 180.739C971.935 180.938 971.675 181.195 971.472 181.495C971.27 181.795 971.128 182.132 971.056 182.487L976.465 183.594C976.61 182.876 976.465 182.131 976.06 181.521C975.656 180.911 975.026 180.486 974.309 180.34Z" fill="#263238"/>
<path d="M956.229 182.001C955.567 182.312 955.056 182.873 954.807 183.56C954.558 184.248 954.591 185.006 954.9 185.669L959.906 183.33C959.593 182.667 959.03 182.156 958.341 181.907C957.652 181.658 956.893 181.692 956.229 182.001Z" fill="#263238"/>
<path d="M946.969 215.471C947.451 218.098 948.172 220.676 949.126 223.172C950.993 228.495 951.753 232.798 952.495 244.349C953.236 255.9 950.935 299.554 952.629 312.577C944.053 312.885 930.162 307.659 923.521 300.969C923.617 296.396 924.579 296.945 927.236 285.163C929.893 273.381 933.012 272.341 932.174 266.113C931.337 259.885 924.473 235.233 929.132 222.363C932.108 221.872 935.05 221.193 937.94 220.332C946.007 218.08 946.969 215.471 946.969 215.471Z" fill="#6B4E95"/>
<path d="M946.969 215.471C947.451 218.098 948.172 220.676 949.126 223.172C950.993 228.495 951.753 232.798 952.495 244.349C953.236 255.9 950.935 299.554 952.629 312.577C944.053 312.885 930.162 307.659 923.521 300.969C923.617 296.396 924.579 296.945 927.236 285.163C929.893 273.381 933.012 272.341 932.174 266.113C931.337 259.885 924.473 235.233 929.132 222.363C932.108 221.872 935.05 221.193 937.94 220.332C946.007 218.08 946.969 215.471 946.969 215.471Z" fill="#D3C4FB"/>
<path d="M965.259 214.213L965.605 215.368C965.721 218.68 972.719 223.704 977.773 231.347C982.826 238.99 983.818 246.614 983.866 256.548C983.914 266.482 987.803 303.86 988.996 308.701C991.778 306.701 993.7 303.723 994.377 300.365C993.415 294.474 991.586 284.242 990.614 280.671C989.641 277.099 989.478 271.218 989.218 263.835C989.074 260.64 989.161 257.439 989.478 254.257C989.478 254.257 993.992 248.222 990.845 237.431C987.697 226.64 972.44 216.61 972.44 216.61C971.473 216.352 970.493 216.146 969.504 215.994C968.01 215.608 966.581 215.008 965.259 214.213Z" fill="#6B4E95"/>
<path d="M965.259 214.213L965.605 215.368C965.721 218.68 972.719 223.704 977.773 231.347C982.826 238.99 983.818 246.614 983.866 256.548C983.914 266.482 987.803 303.86 988.996 308.701C991.778 306.701 993.7 303.723 994.377 300.365C993.415 294.474 991.586 284.242 990.614 280.671C989.641 277.099 989.478 271.218 989.218 263.835C989.074 260.64 989.161 257.439 989.478 254.257C989.478 254.257 993.992 248.222 990.845 237.431C987.697 226.64 972.44 216.61 972.44 216.61C971.473 216.352 970.493 216.146 969.504 215.994C968.01 215.608 966.581 215.008 965.259 214.213Z" fill="#D3C4FB"/>
<path d="M946.585 210.895C945.695 214.416 943.557 217.494 940.568 219.558C940.568 219.558 943.187 229.964 942.975 235.133C942.763 240.302 941.897 245.327 943.312 245.24C945.235 244.869 947.127 244.35 948.972 243.69C948.972 243.69 945.718 248.84 946.084 250.428C946.45 252.017 952.418 269.488 952.418 269.488C952.418 269.488 953.929 248.955 953.38 242.959C952.832 236.962 951.359 225.93 949.001 219.664C947.957 216.812 947.149 213.879 946.585 210.895Z" fill="#D4C4FC"/>
<path d="M984.287 265.44C984.383 259.665 986.886 245.12 987.175 242.222C987.463 239.325 983.324 236.841 983.324 236.841C983.324 236.841 985.817 237.39 986.607 236.726C987.396 236.062 982.179 229.025 977.77 224.443C973.361 219.861 965.016 212.892 965.016 212.892L965.17 216.742C967.577 219.17 969.746 221.823 971.648 224.665C975.508 230.642 982.66 237.044 984.287 265.44Z" fill="#D4C4FC"/>
<path d="M923.116 313.116C921.787 311.941 920.132 310.969 919.448 309.265C919.253 308.833 919.163 308.362 919.185 307.888C919.207 307.415 919.34 306.953 919.573 306.541C919.702 306.387 919.794 306.206 919.843 306.012C919.854 305.847 919.828 305.683 919.766 305.53C919.531 304.885 919.501 304.182 919.679 303.519C919.777 303.246 919.93 302.997 920.129 302.787C920.328 302.576 920.568 302.409 920.834 302.296C920.415 301.346 920.311 300.287 920.536 299.274C920.776 298.215 921.681 297.223 922.625 298.109C923.688 298.977 924.704 299.902 925.666 300.881C926.61 301.935 927.211 303.251 927.389 304.654C927.422 305.523 927.347 306.393 927.168 307.244C927.078 307.943 926.913 308.63 926.677 309.294C926.411 309.779 926.201 310.292 926.051 310.825C926.014 311.366 925.808 311.883 925.463 312.302C925.118 312.722 924.651 313.023 924.126 313.164C923.972 313.193 923.318 313.279 923.116 313.116Z" fill="#9A4A4D"/>
<path d="M928.604 224.49C916.571 227.695 915.127 233.153 909.4 243.212C904.923 250.83 900.899 258.705 897.348 266.796C894.99 272.571 894.788 274.545 900.968 280.907C904.019 284.055 907.07 286.683 912.711 291.621C916.302 294.788 920.171 297.993 923.906 301.189C924.395 301.637 924.77 302.197 924.998 302.82C925.225 303.443 925.3 304.112 925.215 304.77C925.057 305.543 924.941 306.324 924.869 307.109C924.983 308.114 925.172 309.108 925.437 310.084C925.564 310.577 925.546 311.096 925.386 311.579C925.225 312.062 924.929 312.489 924.532 312.808C924.095 313.033 923.608 313.146 923.117 313.135C924.014 313.678 924.987 314.084 926.005 314.338C927.05 314.588 928.152 314.43 929.085 313.895C929.951 313.356 930.558 312.403 931.501 311.97C932.011 311.749 932.589 311.71 933.109 311.518C933.642 311.305 934.096 310.932 934.408 310.449C934.889 309.679 935.005 308.649 935.756 308.13C936.112 307.879 936.555 307.802 936.93 307.59C937.307 307.358 937.622 307.038 937.848 306.658C938.074 306.277 938.205 305.847 938.23 305.405C938.268 304.519 938.151 303.633 937.883 302.787C937.276 300.504 936.546 298.254 935.698 296.049C935.37 295.302 934.91 294.621 934.341 294.037C933.734 293.325 933.137 292.593 932.483 291.929C928.055 287.386 916.071 269.789 916.071 269.789L927.959 250.422C927.959 250.422 937.017 233.529 928.604 224.49Z" fill="#B16668"/>
<path d="M916.088 269.716C913.017 273.46 907.694 274.317 905.711 274.413C907.731 275.04 909.882 275.117 911.941 274.634C914.001 274.152 915.894 273.129 917.426 271.67L916.088 269.716Z" fill="#9A4A4D"/>
<path d="M908.939 251.818C910.616 253.185 912.425 254.381 914.339 255.39C917.332 257.032 920.625 258.054 924.022 258.393L930.761 247.179C930.761 247.179 937.98 229.361 929.134 222.373C922.261 223.999 920.288 223.691 915.975 230.487C913.087 234.992 909.025 242.76 905.849 248.911C906.782 249.978 907.817 250.952 908.939 251.818Z" fill="#D4C4FC"/>
<path d="M1059.31 188.005L1051.66 183.423C1046.34 184.018 1040.98 184.221 1035.63 184.03C1021.28 183.645 1013.41 178.36 1014.89 169.735C1016.61 159.618 1026.13 156.259 1043.22 156.345C1053.31 156.413 1060.44 159.406 1063.64 163.748C1067.21 168.561 1066.63 177.08 1058.18 181.151L1059.31 188.005Z" fill="#D4C4FC"/>
<path d="M1317.93 163.723L1309.44 156.244C1303.3 156.925 1297.11 157.157 1290.93 156.937C1274.38 156.494 1265.3 150.401 1267 140.438C1269 128.772 1279.98 124.854 1299.73 125.037C1311.37 125.123 1319.6 128.579 1323.28 133.594C1327.41 139.197 1326.74 148.996 1316.98 153.664L1317.93 163.723Z" fill="#D4C4FC"/>
<path d="M1158.61 124.855L1166.04 118.309C1171.41 118.904 1176.81 119.107 1182.21 118.916C1196.65 118.531 1204.62 113.207 1203.13 104.477C1201.39 94.2733 1191.79 90.8561 1174.55 91.0005C1164.37 91.0775 1157.22 94.1 1153.96 98.4798C1150.35 103.379 1150.94 111.956 1159.46 116.028L1158.61 124.855Z" fill="#D4C4FC"/>
<path d="M892.736 161.667L900.167 155.179C905.535 155.773 910.941 155.973 916.338 155.775C930.777 155.39 938.748 150.067 937.256 141.337C935.513 131.114 925.916 127.687 908.686 127.812C898.502 127.88 891.359 130.902 888.086 135.282C884.486 140.181 885.073 148.758 893.602 152.83L892.736 161.667Z" fill="#D4C4FC"/>
<path d="M964.247 144.082L977.617 136.545C977.617 136.545 998.544 136.805 1008.03 130.173C1017.01 123.897 1021.17 108.033 1008.31 97.7718C996.176 88.0496 964.16 88.1459 950.405 97.5312C940.875 104.029 937.371 118.092 944.331 126.756C950.184 134.042 965.508 135.265 965.508 135.265L964.247 144.082Z" fill="#FAFAFA"/>
<path d="M963.604 144.971L964.913 135.692C962.15 135.403 949.309 133.766 943.928 127.028C942.387 125.036 941.277 122.745 940.669 120.301C940.061 117.856 939.968 115.312 940.396 112.83C940.862 109.69 941.964 106.678 943.634 103.979C945.304 101.28 947.507 98.9491 950.108 97.13C964.201 87.5041 996.448 87.6581 1008.59 97.3899C1014.15 101.847 1017.1 107.863 1016.88 114.322C1016.78 117.506 1015.95 120.624 1014.46 123.439C1012.96 126.253 1010.85 128.689 1008.27 130.561C999.056 137.001 979.641 137.049 977.706 137.02L963.604 144.971ZM979.747 90.9213C968.725 90.9213 957.501 93.2508 950.647 97.9194C948.163 99.6593 946.057 101.886 944.459 104.464C942.861 107.042 941.802 109.917 941.349 112.917C940.939 115.27 941.022 117.684 941.594 120.003C942.166 122.323 943.213 124.499 944.67 126.393C950.339 133.439 965.346 134.719 965.5 134.729H966.001L964.826 143.094L977.465 135.971H977.59C977.812 135.971 998.479 136.144 1007.72 129.685C1010.18 127.899 1012.19 125.575 1013.61 122.89C1015.03 120.206 1015.82 117.233 1015.92 114.197C1016.07 109.846 1014.8 103.512 1007.99 98.0541C1001.98 93.3278 990.97 90.9213 979.747 90.9213Z" fill="#455A64"/>
<path d="M964.149 114.841C964.149 115.645 963.91 116.43 963.464 117.098C963.018 117.766 962.383 118.287 961.641 118.594C960.899 118.902 960.082 118.982 959.294 118.825C958.506 118.669 957.782 118.282 957.214 117.714C956.646 117.145 956.259 116.422 956.102 115.634C955.946 114.846 956.026 114.029 956.334 113.287C956.641 112.544 957.162 111.91 957.83 111.464C958.498 111.017 959.283 110.779 960.087 110.779C961.164 110.779 962.197 111.207 962.959 111.969C963.721 112.731 964.149 113.764 964.149 114.841Z" fill="#04383B"/>
<path d="M982.627 114.841C982.629 115.647 982.391 116.436 981.945 117.107C981.498 117.778 980.862 118.301 980.118 118.611C979.373 118.92 978.554 119.002 977.763 118.845C976.972 118.688 976.246 118.3 975.676 117.73C975.106 117.16 974.718 116.434 974.561 115.643C974.404 114.852 974.486 114.033 974.795 113.288C975.105 112.544 975.628 111.908 976.299 111.461C976.97 111.015 977.759 110.777 978.565 110.779C979.642 110.779 980.675 111.207 981.437 111.969C982.199 112.731 982.627 113.764 982.627 114.841Z" fill="#04383B"/>
<path d="M1001.01 114.841C1001.01 115.647 1000.77 116.435 1000.33 117.106C999.879 117.777 999.244 118.3 998.5 118.61C997.756 118.92 996.937 119.002 996.147 118.846C995.356 118.69 994.63 118.302 994.059 117.733C993.489 117.164 993.1 116.439 992.942 115.649C992.784 114.859 992.864 114.039 993.172 113.295C993.48 112.55 994.002 111.914 994.672 111.466C995.342 111.018 996.129 110.779 996.935 110.779C998.013 110.779 999.048 111.207 999.811 111.968C1000.57 112.73 1001 113.763 1001.01 114.841Z" fill="#04383B"/>
<path d="M1129.12 148.018L1128.83 137.429C1128.83 137.429 1146.08 135.138 1144.23 117.215C1143.09 106.039 1137.05 97.3951 1101.88 98.3866C1063.08 99.4839 1067.68 122.962 1071.96 129.555C1078.4 139.47 1093 140.365 1120.73 138.825L1129.12 148.018Z" fill="#FAFAFA"/>
<path d="M1129.63 149.304L1120.59 139.312C1092.58 140.862 1078.14 139.784 1071.61 129.812C1069.23 126.134 1067.02 118.078 1070.76 110.954C1073.71 105.323 1081.52 98.4406 1101.92 97.9015C1135.74 96.9389 1143.48 104.909 1144.73 117.153C1146.43 133.7 1132.02 137.281 1129.33 137.801L1129.63 149.304ZM1120.97 138.321L1128.57 146.734L1128.31 136.992L1128.74 136.935C1129.43 136.838 1145.5 134.48 1143.74 117.259C1142.73 107.383 1138.69 97.8245 1101.92 98.8641C1086.14 99.3069 1075.65 103.677 1071.58 111.378C1068.03 118.116 1070.12 125.769 1072.39 129.253C1078.65 138.879 1092.97 139.842 1120.75 138.311L1120.97 138.321Z" fill="#455A64"/>
<path d="M1092.45 119.567C1092.46 120.373 1092.22 121.161 1091.77 121.832C1091.32 122.503 1090.69 123.027 1089.94 123.336C1089.2 123.646 1088.38 123.727 1087.59 123.57C1086.8 123.413 1086.07 123.025 1085.5 122.455C1084.93 121.885 1084.54 121.159 1084.39 120.368C1084.23 119.577 1084.31 118.758 1084.62 118.014C1084.93 117.269 1085.45 116.633 1086.13 116.187C1086.8 115.74 1087.58 115.503 1088.39 115.504C1089.47 115.504 1090.5 115.932 1091.26 116.694C1092.03 117.456 1092.45 118.489 1092.45 119.567Z" fill="#04383B"/>
<path d="M1110.89 119.567C1110.89 120.37 1110.65 121.155 1110.2 121.823C1109.76 122.491 1109.12 123.012 1108.38 123.319C1107.64 123.627 1106.82 123.707 1106.03 123.551C1105.25 123.394 1104.52 123.007 1103.95 122.439C1103.39 121.871 1103 121.147 1102.84 120.359C1102.68 119.571 1102.77 118.754 1103.07 118.012C1103.38 117.27 1103.9 116.635 1104.57 116.189C1105.24 115.743 1106.02 115.504 1106.83 115.504C1107.9 115.504 1108.94 115.932 1109.7 116.694C1110.46 117.456 1110.89 118.489 1110.89 119.567Z" fill="#04383B"/>
<path d="M1129.35 119.584C1129.34 120.386 1129.09 121.168 1128.64 121.831C1128.19 122.494 1127.55 123.009 1126.81 123.31C1126.07 123.612 1125.25 123.686 1124.47 123.524C1123.68 123.362 1122.96 122.971 1122.4 122.401C1121.83 121.83 1121.45 121.106 1121.3 120.318C1121.14 119.531 1121.23 118.715 1121.54 117.976C1121.85 117.236 1122.37 116.604 1123.04 116.161C1123.71 115.717 1124.49 115.482 1125.29 115.483C1125.83 115.485 1126.36 115.592 1126.85 115.799C1127.35 116.006 1127.8 116.309 1128.17 116.69C1128.55 117.071 1128.85 117.523 1129.05 118.02C1129.25 118.517 1129.35 119.048 1129.35 119.584Z" fill="#04383B"/>
<path d="M1196.32 202.362L1184.4 192.043C1184.4 192.043 1163.6 193.708 1154.56 185.853C1146.57 178.932 1147.82 165.754 1157.53 158.487C1168.76 150.074 1199.48 151.267 1208.55 158.352C1217.62 165.437 1218.02 177.517 1210.48 185.632C1206.15 190.281 1195.72 191.504 1195.72 191.504L1196.32 202.362Z" fill="#FAFAFA"/>
<path d="M1196.84 203.434L1184.21 192.499C1181.9 192.662 1162.92 193.75 1154.18 186.175C1152.37 184.605 1150.95 182.642 1150.01 180.436C1149.08 178.231 1148.66 175.841 1148.79 173.449C1148.94 170.416 1149.78 167.457 1151.23 164.79C1152.68 162.124 1154.72 159.819 1157.19 158.048C1168.6 149.49 1199.44 150.616 1208.77 157.922C1210.86 159.498 1212.59 161.493 1213.85 163.78C1215.12 166.066 1215.89 168.593 1216.12 171.197C1216.3 173.888 1215.92 176.588 1214.99 179.122C1214.07 181.655 1212.62 183.967 1210.74 185.905C1206.82 190.131 1198.23 191.575 1196.13 191.873L1196.84 203.434ZM1184.52 191.507L1195.74 201.21L1195.12 191.045L1195.57 190.997C1195.68 190.997 1205.88 189.736 1210.01 185.27C1211.79 183.425 1213.17 181.227 1214.05 178.818C1214.93 176.409 1215.3 173.842 1215.12 171.283C1214.91 168.814 1214.17 166.419 1212.97 164.251C1211.77 162.084 1210.13 160.193 1208.15 158.702C1199.26 151.733 1168.68 150.664 1157.73 158.837C1155.39 160.525 1153.46 162.716 1152.08 165.25C1150.69 167.784 1149.9 170.595 1149.75 173.478C1149.63 175.727 1150.02 177.973 1150.9 180.046C1151.78 182.12 1153.12 183.965 1154.82 185.443C1163.63 193.076 1184.12 191.536 1184.33 191.517L1184.52 191.507Z" fill="#455A64"/>
<path d="M1166.9 176.045C1168.8 176.045 1170.35 174.502 1170.35 172.599C1170.35 170.696 1168.8 169.153 1166.9 169.153C1165 169.153 1163.45 170.696 1163.45 172.599C1163.45 174.502 1165 176.045 1166.9 176.045Z" fill="#04383B"/>
<path d="M1182.52 176.045C1184.42 176.045 1185.96 174.502 1185.96 172.599C1185.96 170.696 1184.42 169.153 1182.52 169.153C1180.61 169.153 1179.07 170.696 1179.07 172.599C1179.07 174.502 1180.61 176.045 1182.52 176.045Z" fill="#04383B"/>
<path d="M1198.17 176.045C1200.08 176.045 1201.62 174.502 1201.62 172.599C1201.62 170.696 1200.08 169.153 1198.17 169.153C1196.27 169.153 1194.73 170.696 1194.73 172.599C1194.73 174.502 1196.27 176.045 1198.17 176.045Z" fill="#04383B"/>
<rect y="526" width="66" height="60" fill="#003940"/>
<path d="M21.89 554.41C21.89 555.01 21.91 555.74 21.95 556.6C21.99 557.44 22.11 558.26 22.31 559.06C22.53 559.84 22.87 560.51 23.33 561.07C23.79 561.63 24.45 561.91 25.31 561.91C26.19 561.91 26.86 561.63 27.32 561.07C27.8 560.51 28.14 559.84 28.34 559.06C28.56 558.26 28.69 557.44 28.73 556.6C28.77 555.74 28.79 555.01 28.79 554.41C28.79 554.05 28.78 553.62 28.76 553.12C28.76 552.6 28.72 552.07 28.64 551.53C28.58 550.99 28.48 550.46 28.34 549.94C28.22 549.4 28.03 548.92 27.77 548.5C27.51 548.08 27.18 547.74 26.78 547.48C26.38 547.22 25.89 547.09 25.31 547.09C24.73 547.09 24.24 547.22 23.84 547.48C23.46 547.74 23.14 548.08 22.88 548.5C22.64 548.92 22.45 549.4 22.31 549.94C22.17 550.46 22.07 550.99 22.01 551.53C21.95 552.07 21.91 552.6 21.89 553.12C21.89 553.62 21.89 554.05 21.89 554.41ZM17.63 554.41C17.63 552.37 17.83 550.66 18.23 549.28C18.65 547.88 19.21 546.76 19.91 545.92C20.61 545.08 21.42 544.48 22.34 544.12C23.28 543.76 24.27 543.58 25.31 543.58C26.37 543.58 27.36 543.76 28.28 544.12C29.22 544.48 30.04 545.08 30.74 545.92C31.46 546.76 32.02 547.88 32.42 549.28C32.84 550.66 33.05 552.37 33.05 554.41C33.05 556.51 32.84 558.27 32.42 559.69C32.02 561.09 31.46 562.21 30.74 563.05C30.04 563.89 29.22 564.49 28.28 564.85C27.36 565.21 26.37 565.39 25.31 565.39C24.27 565.39 23.28 565.21 22.34 564.85C21.42 564.49 20.61 563.89 19.91 563.05C19.21 562.21 18.65 561.09 18.23 559.69C17.83 558.27 17.63 556.51 17.63 554.41ZM45.5199 565H41.2599V551.38H35.9799V548.17C36.7199 548.19 37.4299 548.14 38.1099 548.02C38.8099 547.88 39.4299 547.65 39.9699 547.33C40.5299 546.99 40.9999 546.55 41.3799 546.01C41.7599 545.47 42.0099 544.8 42.1299 544H45.5199V565Z" fill="#00D47E"/>
<rect width="66" height="535" fill="#003940"/>
</svg>
