<svg width="1181" height="250" viewBox="0 0 1181 250" fill="none" xmlns="http://www.w3.org/2000/svg">
<g clip-path="url(#clip0_2_5)">
<path d="M808.1 90.5C809.2 90.4 810 89.5 809.9 88.4C809.8 87.3 808.9 86.5 807.8 86.6C806.7 86.7 805.9 87.6 806 88.7C806.1 89.7 807.1 90.5 808.1 90.5ZM684.4 27.4C684.4 30.5 686.9 33.1 690.1 33.1C693.3 33.1 695.8 30.6 695.8 27.4C695.8 24.3 693.3 21.7 690.1 21.7C687 21.7 684.4 24.3 684.4 27.4ZM720.4 39.6C720.4 42.7 722.9 45.3 726.1 45.3C729.2 45.3 731.8 42.8 731.8 39.6C731.8 36.5 729.3 33.9 726.1 33.9C723 33.9 720.4 36.4 720.4 39.6C720.4 39.5 720.4 39.5 720.4 39.6ZM585 187.7C585 190.8 587.5 193.4 590.7 193.4C593.8 193.4 596.4 190.9 596.4 187.7C596.4 184.6 593.9 182 590.7 182C587.6 182.1 585.1 184.6 585 187.7ZM613 211.2C613 214.3 615.5 216.9 618.7 216.9C621.8 216.9 624.4 214.4 624.4 211.2C624.4 208.1 621.9 205.5 618.7 205.5C615.6 205.6 613 208.1 613 211.2ZM648.6 222.2C648.6 225.3 651.1 227.9 654.3 227.9C657.4 227.9 660 225.4 660 222.2C660 219.1 657.5 216.5 654.3 216.5C651.2 216.5 648.7 219 648.6 222.2ZM685.2 221.8C685.3 224.9 687.9 227.4 691 227.3C694.1 227.2 696.6 224.6 696.5 221.5C696.4 218.4 693.9 216 690.9 216C687.8 216 685.2 218.5 685.2 221.6C685.2 221.6 685.2 221.7 685.2 221.8ZM720.4 210.6C720.4 213.7 723 216.3 726.2 216.2C729.3 216.2 731.9 213.6 731.8 210.4C731.8 207.3 729.3 204.8 726.2 204.8C723.1 204.8 720.5 207.3 720.5 210.4C720.5 210.5 720.5 210.5 720.4 210.6ZM748.4 188.1C748.4 191.2 750.9 193.8 754.1 193.8C757.2 193.8 759.8 191.3 759.8 188.1C759.8 184.9 757.3 182.4 754.1 182.4C751 182.3 748.5 184.9 748.4 188.1C748.4 188 748.4 188 748.4 188.1ZM748.1 62C748.1 65.1 750.7 67.6 753.8 67.6C756.9 67.6 759.4 65 759.4 61.9C759.4 58.8 756.9 56.3 753.7 56.3C750.6 56.3 748.1 58.9 748.1 62ZM708.3 47C708.3 43 705 39.8 701 39.8C697 39.8 693.8 43.1 693.8 47.1C693.8 51.1 697 54.3 701 54.3C705.1 54.3 708.3 51 708.3 47ZM732.6 62C732.6 58 729.3 54.8 725.3 54.8C721.3 54.8 718.1 58.1 718.1 62.1C718.1 66.1 721.3 69.3 725.3 69.3C729.4 69.2 732.6 66 732.6 62ZM751.6 83.3C751.6 79.3 748.4 76 744.3 76C740.3 76 737 79.2 737 83.3C737 87.4 740.2 90.6 744.3 90.6C748.3 90.6 751.5 87.4 751.6 83.3C751.6 83.4 751.6 83.4 751.6 83.3ZM699.6 2.10002C699.7 1.00002 698.9 0.100016 697.9 1.63317e-05C696.8 -0.0999837 695.9 0.700016 695.8 1.80002C695.7 2.90002 696.5 3.80002 697.6 3.90002C698.6 4.00002 699.5 3.20002 699.6 2.10002C699.6 2.20002 699.6 2.20002 699.6 2.10002ZM748 19.7C748.1 18.7 747.3 17.7 746.3 17.6C745.2 17.6 744.4 18.5 744.4 19.6C744.4 20.5 745.1 21.3 746 21.5C747 21.6 748 20.8 748 19.7ZM786.1 47C786.2 45.9 785.4 45 784.3 44.9C783.3 44.8 782.3 45.6 782.2 46.6C782 47.7 782.7 48.7 783.7 48.9C784.8 49.1 785.8 48.4 786 47.3C786.1 47.2 786.1 47.1 786.1 47ZM720.2 21.8C720.3 19.8 718.7 18 716.7 17.9C714.7 17.8 712.9 19.4 712.8 21.4C712.7 23.4 714.2 25.1 716.2 25.3C718.2 25.5 720 24 720.2 22C720.2 21.9 720.2 21.8 720.2 21.8ZM757.2 40.2C757.4 38.2 755.9 36.4 753.9 36.2H753.8C751.8 35.9 749.9 37.2 749.6 39.2C749.3 41.2 750.6 43.1 752.6 43.4C752.7 43.4 752.8 43.4 752.9 43.4H753.2C755.2 43.6 757 42.1 757.1 40.1C757.1 40 757.1 40 757.1 39.9M782.3 66.4C780.3 66.3 778.5 67.9 778.4 69.9C778.3 71.9 779.9 73.7 781.9 73.8C783.9 73.9 785.6 72.4 785.8 70.4C786 68.4 784.5 66.6 782.5 66.4C782.4 66.4 782.3 66.4 782.3 66.4ZM672.2 11.6C670.1 11.6 668.5 13.2 668.5 15.3C668.5 17.4 670.1 19 672.2 19C674.3 19 675.9 17.4 675.9 15.3C675.9 13.4 674.3 11.7 672.2 11.6C672.2 11.7 672.2 11.7 672.2 11.6ZM654.3 21.8C651.2 21.8 648.6 24.3 648.6 27.5C648.6 30.6 651.1 33.2 654.3 33.2C657.4 33.2 660 30.7 660 27.5C659.9 24.4 657.4 21.9 654.3 21.8ZM618.3 33.9C615.2 33.9 612.6 36.4 612.6 39.6C612.6 42.7 615.1 45.3 618.3 45.3C621.4 45.3 624 42.8 624 39.6C624 36.5 621.5 33.9 618.3 33.9ZM565.7 119.5C562.6 119.5 560 122 560 125.2C560 128.3 562.5 130.9 565.7 130.9C568.8 130.9 571.4 128.4 571.4 125.2C571.4 122.2 568.9 119.6 565.7 119.5ZM572.7 86.2C569.6 86.2 567 88.7 567 91.9C567 95 569.5 97.6 572.7 97.6C575.8 97.6 578.4 95.1 578.4 91.9C578.5 88.8 576 86.2 572.9 86.1M591 56.3C587.9 56.3 585.3 58.8 585.3 62C585.3 65.1 587.8 67.7 591 67.7C594.1 67.7 596.7 65.2 596.7 62C596.6 58.9 594.1 56.4 591 56.3ZM672.2 214.9C676.2 214.9 679.5 211.7 679.5 207.7C679.5 203.7 676.3 200.4 672.3 200.4C668.3 200.4 665 203.6 665 207.6C665 211.6 668.2 214.8 672.2 214.9ZM672.2 50C676.2 50 679.5 46.8 679.5 42.8C679.5 38.8 676.3 35.5 672.3 35.5C668.3 35.5 665 38.7 665 42.7C665 46.7 668.2 49.9 672.2 50ZM643.4 54.2C647.4 54.2 650.7 51 650.7 47C650.7 43 647.5 39.7 643.5 39.7C639.5 39.7 636.2 42.9 636.2 46.9C636.1 50.9 639.3 54.2 643.4 54.2C643.3 54.2 643.3 54.2 643.4 54.2ZM619 69.1C623 69.1 626.3 65.9 626.3 61.9C626.3 57.9 623.1 54.6 619.1 54.6C615.1 54.6 611.8 57.8 611.8 61.8C611.8 65.8 615 69.1 619 69.1ZM599.8 90.6C603.8 90.8 607.2 87.7 607.4 83.7C607.6 79.7 604.5 76.3 600.5 76.1C596.5 75.9 593.1 79 592.9 83V83.1C592.9 87.1 596.1 90.3 600.1 90.4M592.2 117.4C596.2 117.4 599.5 114.2 599.5 110.2C599.5 106.2 596.3 102.9 592.3 102.9C588.3 102.9 585 106.1 585 110.1C585 114.1 588.2 117.3 592.2 117.4ZM646.9 3.90002C648 3.80002 648.8 2.90002 648.7 1.80002C648.6 0.700016 647.7 -0.0999837 646.6 1.63317e-05C645.5 0.100016 644.8 1.00002 644.9 2.10002C644.9 2.10002 644.9 2.10002 644.9 2.20002C644.9 3.20002 645.8 4.00002 646.9 3.90002C646.8 3.90002 646.8 3.90002 646.9 3.90002ZM598.5 21.5C599.6 21.4 600.3 20.5 600.3 19.5C600.2 18.4 599.3 17.6 598.2 17.7C597.1 17.8 596.4 18.7 596.4 19.7C596.5 20.8 597.4 21.5 598.5 21.5ZM808.1 173.2C809.2 173.2 810 172.3 810 171.3C810 170.2 809.1 169.4 808.1 169.4H807.7C806.6 169.5 805.9 170.4 805.9 171.4C806 172.5 806.9 173.3 808 173.2M784.8 205.4C785.9 205.3 786.6 204.3 786.6 203.3C786.5 202.2 785.6 201.4 784.5 201.5C783.4 201.6 782.6 202.5 782.7 203.6C782.8 204.7 783.7 205.5 784.8 205.4ZM746.2 232.6C747.3 232.5 748 231.6 748 230.6C748 229.5 747.1 228.7 746.1 228.6C745 228.6 744.2 229.5 744.1 230.5C744.1 230.6 744.1 230.8 744.1 230.9C744.2 232 745.1 232.8 746.2 232.6C746.2 232.7 746.2 232.7 746.2 232.6ZM697.9 250C699 249.9 699.8 249 699.7 247.9C699.6 246.8 698.7 246 697.6 246.1C696.5 246.2 695.7 247.1 695.8 248.2C695.9 249.3 696.8 250.1 697.9 250ZM646.9 250C648 249.9 648.8 249 648.7 247.9C648.6 246.8 647.7 246 646.6 246.1C645.5 246.2 644.7 247.1 644.8 248.2C644.9 249.3 645.8 250.1 646.9 250ZM598.5 232.4C599.6 232.3 600.3 231.4 600.3 230.4C600.2 229.3 599.3 228.5 598.2 228.6C597.1 228.7 596.4 229.6 596.4 230.6C596.5 231.7 597.4 232.5 598.5 232.4ZM560.3 205.1C561.4 205 562.2 204.1 562.1 203C562 201.9 561.1 201.1 560 201.2C558.9 201.3 558.1 202.2 558.2 203.3C558.3 204.4 559.2 205.2 560.3 205.1ZM536.4 173.2C537.5 173.2 538.3 172.3 538.3 171.3C538.3 170.2 537.4 169.4 536.4 169.4H536C534.9 169.6 534.3 170.6 534.5 171.7C534.7 172.6 535.4 173.3 536.4 173.3M560.5 48.6C561.6 48.5 562.4 47.6 562.3 46.5C562.2 45.4 561.3 44.6 560.2 44.7C559.1 44.8 558.3 45.7 558.4 46.8C558.5 47.9 559.4 48.7 560.5 48.6ZM628.1 24.9C630.1 24.6 631.5 22.8 631.3 20.8C631 18.9 629.4 17.5 627.5 17.6C625.5 17.9 624.1 19.7 624.4 21.7C624.7 23.5 626.2 24.9 628 24.9M591 43.4C592.9 43.3 594.4 41.7 594.3 39.8C594.2 37.9 592.6 36.4 590.7 36.5C588.8 36.6 587.3 38.2 587.4 40.1C587.5 41.9 588.9 43.3 590.7 43.4H591ZM558.5 70.3C558.5 72.2 560.1 73.8 562 73.8H562.5C564.5 73.8 566.2 72.1 566.1 70.1C566.1 68.1 564.4 66.4 562.4 66.5C562.3 66.5 562.1 66.5 562 66.5C559.9 66.6 558.3 68.3 558.5 70.3ZM796.8 140.3C794.8 140.5 793.3 142.3 793.4 144.3C793.6 146.3 795.4 147.8 797.4 147.7C799.4 147.5 800.9 145.7 800.8 143.7C800.6 141.6 798.8 140.1 796.8 140.3ZM782.5 176C780.5 176.3 779.1 178.1 779.3 180.1C779.5 182 781.2 183.4 783.1 183.3C785.1 183 786.5 181.2 786.2 179.2C785.9 177.4 784.4 176 782.6 176M754.1 206.4C752.1 206.4 750.4 208.1 750.5 210.1C750.5 212.1 752.2 213.8 754.2 213.7C754.3 213.7 754.5 213.7 754.6 213.7C756.6 213.6 758.2 211.9 758.1 209.8C758.1 207.9 756.5 206.3 754.6 206.3H754.1M716.3 224.9C714.3 225 712.7 226.7 712.8 228.8C712.9 230.8 714.6 232.4 716.6 232.3C718.6 232.2 720.2 230.5 720.1 228.5C720.1 228.5 720.1 228.3 720.1 228.2C720 226.2 718.3 224.6 716.3 224.7M671.8 230.9C669.8 231 668.2 232.7 668.3 234.7C668.4 236.7 670.1 238.3 672.1 238.2H672.4C674.4 237.9 675.8 236.1 675.6 234.1C675.3 232.2 673.7 230.9 671.8 230.9ZM629.1 226C627.1 226.2 625.6 228 625.8 230C626 232 627.8 233.5 629.8 233.3C631.8 233.1 633.3 231.4 633.2 229.4C633.1 227.4 631.4 225.8 629.3 225.9C629.2 226 629.2 226 629.1 226ZM590.6 206.6C588.6 206.7 587 208.4 587.1 210.4C587.2 212.4 588.9 214 590.9 213.9H591.2C593.2 213.6 594.6 211.8 594.4 209.8C594.1 207.9 592.5 206.5 590.6 206.6ZM561.9 176.2C559.9 176.5 558.5 178.3 558.7 180.3C558.9 182.2 560.6 183.6 562.5 183.5C564.5 183.2 565.9 181.4 565.6 179.4C565.3 177.6 563.8 176.2 562 176.2M546.1 105.7C544.1 106 542.7 107.8 542.9 109.8C543.1 111.7 544.8 113.1 546.7 113C548.7 112.7 550.1 110.9 549.8 108.9C549.5 107.1 548 105.7 546.2 105.7M650.9 202.9C650.9 198.9 647.7 195.7 643.7 195.7C639.7 195.7 636.5 198.9 636.5 202.9C636.5 206.9 639.7 210.1 643.7 210.1C647.6 210.1 650.9 206.9 650.9 202.9ZM700.7 195.6C696.7 195.6 693.4 198.8 693.4 202.8C693.4 206.8 696.6 210.1 700.6 210.1C704.6 210.1 707.9 206.9 707.9 202.9C708 198.9 704.8 195.7 700.7 195.6C700.8 195.7 700.8 195.7 700.7 195.6ZM725.5 181.3C721.5 181.2 718.2 184.4 718.1 188.4C718 192.4 721.2 195.7 725.2 195.8C729.2 195.9 732.5 192.7 732.6 188.7V188.6C732.7 184.6 729.4 181.3 725.4 181.2C725.3 181.2 725.3 181.2 725.2 181.2M751.5 166.7C751.5 162.7 748.2 159.5 744.2 159.5C740.2 159.5 737 162.8 737 166.8C737 170.8 740.2 174 744.2 174C748.2 173.9 751.5 170.7 751.5 166.7ZM619.2 180.9C615.2 180.9 611.9 184.1 611.9 188.1C611.9 192.1 615.1 195.4 619.1 195.4C623.1 195.4 626.4 192.2 626.4 188.2C626.4 184.2 623.2 181 619.2 180.9ZM600.1 159.5C596.1 159.5 592.8 162.7 592.8 166.7C592.8 170.7 596 174 600 174C604 174 607.3 170.8 607.3 166.8V166.7C607.3 162.7 604 159.4 600.1 159.5ZM890 97.2H934.8V156.9H950.5V97.2H991.3L995.1 86.8H893.8L890 97.2ZM527.1 86.8H511.4V156.9H583.1L587 146.5H527.1V86.8ZM673.3 86.8L711.2 156.2H728L690.1 87L673.3 86.8ZM616 156.2H632.8L670.7 87H653.9L616 156.2ZM842.1 138.9L776.1 87.1H760.3V156.3H776V104.2L842 156.3H857.7V87H842L842.1 138.9ZM1160 116.4H1111.8C1107 116.8 1102.7 113.3 1102.3 108.5C1102.3 108.2 1102.3 108 1102.3 107.7V105.8C1102.4 101 1106.3 97.3 1111 97.3C1111 97.3 1111 97.3 1111.1 97.3H1176.7L1180.5 86.9H1107C1093.8 86.9 1087 95.8 1086.9 104.7V109.3C1086.9 118.3 1093.8 127.6 1107.4 127.6H1155.6C1160.4 127.2 1164.7 130.7 1165.1 135.5C1165.1 135.7 1165.1 135.9 1165.1 136.2V138.1C1165 142.9 1161.1 146.7 1156.3 146.6H1090.7L1086.9 157H1160.4C1173.6 157 1180.4 148.1 1180.5 139.2V134.6C1180.5 125.6 1173.6 116.3 1160 116.3M73.2 116.3H24.9C20.1 116.7 15.8 113.2 15.4 108.4C15.4 108.2 15.4 108 15.4 107.7V105.8C15.5 101 19.4 97.3 24.1 97.3H89.8L93.8 86.9H20.1C6.9 87.2 0.1 96 0 104.9V109.5C0 118.5 6.9 127.8 20.5 127.8H68.7C73.5 127.4 77.8 130.9 78.2 135.7C78.2 135.9 78.2 136.1 78.2 136.4V138.3C78.1 143.1 74.2 146.9 69.4 146.8H3.8L0 157.1H73.5C86.7 157.1 93.5 148.2 93.6 139.3V134.5C93.6 125.5 86.7 116.2 73.1 116.2M1028.3 156.2H1044V87H1028.3V156.2ZM127.9 97.2H172.6V156.9H188.3V97.2H229.1L232.9 86.8H131.7L127.9 97.2ZM343.1 97.2L346.9 86.8H267.3V156.9H343.2L347 146.5H283.1V126.8H327.8L331.6 116.6H283V97.2H343.1ZM410 146.6H469.9L466 157H394.3V87H410V146.6Z" fill="#CECECE"/>
</g>
<defs>
<clipPath id="clip0_2_5">
<rect width="1180.5" height="250" fill="white"/>
</clipPath>
</defs>
</svg>
